<svg width="234" height="200" viewBox="0 0 234 200" fill="none" xmlns="http://www.w3.org/2000/svg">
<g clip-path="url(#clip0_3_1083)">
<mask id="mask0_3_1083" style="mask-type:alpha" maskUnits="userSpaceOnUse" x="-83" y="-100" width="400" height="400">
<path d="M100.896 169.759C107.139 161.402 110.785 152.931 111.835 144.348C112.913 135.727 111.51 127.432 107.624 119.463C103.728 111.427 97.4319 104.161 88.7344 97.6644L88.621 97.5797C79.9235 91.0829 71.1884 87.1208 62.4158 85.6934C53.6714 84.2282 45.3188 85.2356 37.3581 88.7156C29.3974 92.1955 22.3098 98.0951 16.0954 106.414C9.96581 114.62 6.36182 123.034 5.28345 131.655C4.20509 140.276 5.5806 148.609 9.40999 156.654C13.2676 164.661 19.5452 171.913 28.2427 178.41L28.3561 178.494C37.0536 184.991 45.8076 188.967 54.618 190.423C63.3907 191.85 71.7574 190.824 79.7181 187.344C87.6788 183.864 94.7381 178.002 100.896 169.759ZM83.6523 156.878C80.7711 160.735 77.236 163.338 73.0472 164.687C68.8584 166.035 64.299 166.105 59.3689 164.897C54.4293 163.623 49.388 161.065 44.2451 157.223L44.1317 157.139C38.951 153.269 35.0679 149.16 32.4823 144.813C29.925 140.429 28.7176 136.051 28.8602 131.68C28.9932 127.243 30.4862 123.115 33.3392 119.295C36.2769 115.362 39.8401 112.722 44.0289 111.373C48.2177 110.024 52.7631 109.973 57.6649 111.219C62.595 112.427 67.6314 114.952 72.7743 118.794L72.8878 118.879C77.9928 122.692 81.857 126.786 84.4804 131.162C87.066 135.508 88.3253 139.896 88.2583 144.323C88.1818 148.685 86.6465 152.87 83.6523 156.878Z" fill="white"/>
<path d="M100.896 169.759C107.139 161.402 110.785 152.931 111.835 144.348C112.913 135.727 111.51 127.432 107.624 119.463C103.728 111.427 97.4319 104.161 88.7344 97.6644L88.621 97.5797C79.9235 91.0829 71.1884 87.1208 62.4158 85.6934C53.6714 84.2282 45.3188 85.2356 37.3581 88.7156C29.3974 92.1955 22.3098 98.0951 16.0954 106.414C9.96581 114.62 6.36182 123.034 5.28345 131.655C4.20509 140.276 5.5806 148.609 9.40999 156.654C13.2676 164.661 19.5452 171.913 28.2427 178.41L28.3561 178.494C37.0536 184.991 45.8076 188.967 54.618 190.423C63.3907 191.85 71.7574 190.824 79.7181 187.344C87.6788 183.864 94.7381 178.002 100.896 169.759ZM83.6523 156.878C80.7711 160.735 77.236 163.338 73.0472 164.687C68.8584 166.035 64.299 166.105 59.3689 164.897C54.4293 163.623 49.388 161.065 44.2451 157.223L44.1317 157.139C38.951 153.269 35.0679 149.16 32.4823 144.813C29.925 140.429 28.7176 136.051 28.8602 131.68C28.9932 127.243 30.4862 123.115 33.3392 119.295C36.2769 115.362 39.8401 112.722 44.0289 111.373C48.2177 110.024 52.7631 109.973 57.6649 111.219C62.595 112.427 67.6314 114.952 72.7743 118.794L72.8878 118.879C77.9928 122.692 81.857 126.786 84.4804 131.162C87.066 135.508 88.3253 139.896 88.2583 144.323C88.1818 148.685 86.6465 152.87 83.6523 156.878Z" stroke="white"/>
<path d="M151.121 94.4322L129.588 78.3471L140.095 64.2799C144.643 58.1916 147.426 52.0218 148.442 45.7705C149.422 39.4909 148.674 33.5121 146.199 27.8339C143.714 22.0897 139.56 17.0425 133.737 12.6925L133.623 12.6077C127.762 8.22943 121.744 5.67809 115.568 4.95372C109.384 4.16328 103.419 5.12828 97.6756 7.84872C91.894 10.5409 86.7293 14.9311 82.1815 21.0194L69.8782 37.4901L65.7575 43.0067L57.9189 53.5004C56.9273 54.8278 57.1996 56.7077 58.527 57.6992L135.571 115.249C136.898 116.241 138.778 115.969 139.77 114.641L151.729 98.631C152.721 97.3036 152.448 95.4238 151.121 94.4322ZM87.6694 47.0352L94.4487 37.9595C97.7254 33.573 101.378 30.9698 105.408 30.1502C109.465 29.2927 113.631 30.46 117.904 33.6519L118.017 33.7366C122.253 36.9003 124.554 40.5633 124.92 44.7257C125.315 48.8503 123.875 53.1059 120.598 57.4924L113.819 66.5681L87.6694 47.0352Z" fill="white"/>
<path d="M151.121 94.4322L129.588 78.3471L140.095 64.2799C144.643 58.1916 147.426 52.0218 148.442 45.7705C149.422 39.4909 148.674 33.5121 146.199 27.8339C143.714 22.0897 139.56 17.0425 133.737 12.6925L133.623 12.6077C127.762 8.22943 121.744 5.67809 115.568 4.95372C109.384 4.16328 103.419 5.12828 97.6756 7.84872C91.894 10.5409 86.7293 14.9311 82.1815 21.0194L69.8782 37.4901L65.7575 43.0067L57.9189 53.5004C56.9273 54.8278 57.1996 56.7077 58.527 57.6992L135.571 115.249C136.898 116.241 138.778 115.969 139.77 114.641L151.729 98.631C152.721 97.3036 152.448 95.4238 151.121 94.4322ZM87.6694 47.0352L94.4487 37.9595C97.7254 33.573 101.378 30.9698 105.408 30.1502C109.465 29.2927 113.631 30.46 117.904 33.6519L118.017 33.7366C122.253 36.9003 124.554 40.5633 124.92 44.7257C125.315 48.8503 123.875 53.1059 120.598 57.4924L113.819 66.5681L87.6694 47.0352Z" stroke="white"/>
<path d="M120.932 169.759C127.175 161.402 130.821 152.931 131.871 144.348C132.95 135.727 131.546 127.432 127.66 119.463C123.765 111.427 117.468 104.161 108.771 97.6644L108.657 97.5797C99.9597 91.0829 91.2247 87.1208 82.452 85.6934C73.7076 84.2282 65.3551 85.2356 57.3943 88.7156C49.4336 92.1955 42.3461 98.0951 36.1317 106.414C30.0021 114.62 26.3981 123.034 25.3197 131.655C24.2413 140.276 25.6169 148.609 29.4462 156.654C33.3039 164.661 39.5814 171.913 48.2789 178.41L48.3924 178.494C57.0899 184.991 65.8438 188.967 74.6543 190.423C83.4269 191.85 91.7936 190.824 99.7543 187.344C107.715 183.864 114.774 178.002 120.932 169.759ZM103.689 156.878C100.807 160.735 97.2723 163.338 93.0835 164.687C88.8947 166.035 84.3353 166.105 79.4052 164.897C74.4655 163.623 69.4243 161.065 64.2814 157.223L64.168 157.139C58.9873 153.269 55.1041 149.16 52.5186 144.813C49.9613 140.429 48.7539 136.051 48.8965 131.68C49.0295 127.243 50.5225 123.115 53.3754 119.295C56.3131 115.362 59.8764 112.722 64.0652 111.373C68.254 110.024 72.7993 109.973 77.7011 111.219C82.6312 112.427 87.6677 114.952 92.8106 118.794L92.924 118.879C98.0291 122.692 101.893 126.786 104.517 131.162C107.102 135.508 108.362 139.896 108.295 144.323C108.218 148.685 106.683 152.87 103.689 156.878Z" fill="white"/>
<path d="M120.932 169.759C127.175 161.402 130.821 152.931 131.871 144.348C132.95 135.727 131.546 127.432 127.66 119.463C123.765 111.427 117.468 104.161 108.771 97.6644L108.657 97.5797C99.9597 91.0829 91.2247 87.1208 82.452 85.6934C73.7076 84.2282 65.3551 85.2356 57.3943 88.7156C49.4336 92.1955 42.3461 98.0951 36.1317 106.414C30.0021 114.62 26.3981 123.034 25.3197 131.655C24.2413 140.276 25.6169 148.609 29.4462 156.654C33.3039 164.661 39.5814 171.913 48.2789 178.41L48.3924 178.494C57.0899 184.991 65.8438 188.967 74.6543 190.423C83.4269 191.85 91.7936 190.824 99.7543 187.344C107.715 183.864 114.774 178.002 120.932 169.759ZM103.689 156.878C100.807 160.735 97.2723 163.338 93.0835 164.687C88.8947 166.035 84.3353 166.105 79.4052 164.897C74.4655 163.623 69.4243 161.065 64.2814 157.223L64.168 157.139C58.9873 153.269 55.1041 149.16 52.5186 144.813C49.9613 140.429 48.7539 136.051 48.8965 131.68C49.0295 127.243 50.5225 123.115 53.3754 119.295C56.3131 115.362 59.8764 112.722 64.0652 111.373C68.254 110.024 72.7993 109.973 77.7011 111.219C82.6312 112.427 87.6677 114.952 92.8106 118.794L92.924 118.879C98.0291 122.692 101.893 126.786 104.517 131.162C107.102 135.508 108.362 139.896 108.295 144.323C108.218 148.685 106.683 152.87 103.689 156.878Z" stroke="white"/>
<path d="M171.157 94.4322L149.624 78.3471L160.132 64.2799C164.68 58.1916 167.462 52.0218 168.479 45.7705C169.458 39.4909 168.71 33.5121 166.235 27.8339C163.751 22.0897 159.597 17.0425 153.773 12.6925L153.66 12.6077C147.798 8.22943 141.78 5.67809 135.605 4.95372C129.42 4.16328 123.456 5.12828 117.712 7.84872C111.93 10.5409 106.766 14.9311 102.218 21.0194L89.9145 37.4901L85.7937 43.0067L77.9551 53.5004C76.9636 54.8278 77.2359 56.7077 78.5633 57.6992L155.607 115.249C156.935 116.241 158.815 115.969 159.806 114.641L171.765 98.631C172.757 97.3036 172.485 95.4238 171.157 94.4322ZM107.706 47.0352L114.485 37.9595C117.762 33.573 121.415 30.9698 125.444 30.1502C129.502 29.2927 133.667 30.46 137.94 33.6519L138.054 33.7366C142.289 36.9003 144.59 40.5633 144.957 44.7257C145.352 48.8503 143.911 53.1059 140.634 57.4924L133.855 66.5681L107.706 47.0352Z" fill="white"/>
<path d="M171.157 94.4322L149.624 78.3471L160.132 64.2799C164.68 58.1916 167.462 52.0218 168.479 45.7705C169.458 39.4909 168.71 33.5121 166.235 27.8339C163.751 22.0897 159.597 17.0425 153.773 12.6925L153.66 12.6077C147.798 8.22943 141.78 5.67809 135.605 4.95372C129.42 4.16328 123.456 5.12828 117.712 7.84872C111.93 10.5409 106.766 14.9311 102.218 21.0194L89.9145 37.4901L85.7937 43.0067L77.9551 53.5004C76.9636 54.8278 77.2359 56.7077 78.5633 57.6992L155.607 115.249C156.935 116.241 158.815 115.969 159.806 114.641L171.765 98.631C172.757 97.3036 172.485 95.4238 171.157 94.4322ZM107.706 47.0352L114.485 37.9595C117.762 33.573 121.415 30.9698 125.444 30.1502C129.502 29.2927 133.667 30.46 137.94 33.6519L138.054 33.7366C142.289 36.9003 144.59 40.5633 144.957 44.7257C145.352 48.8503 143.911 53.1059 140.634 57.4924L133.855 66.5681L107.706 47.0352Z" stroke="white"/>
<path d="M140.968 169.759C147.211 161.402 150.857 152.931 151.908 144.348C152.986 135.727 151.582 127.432 147.696 119.463C143.801 111.427 137.504 104.161 128.807 97.6644L128.693 97.5797C119.996 91.0829 111.261 87.1208 102.488 85.6934C93.7439 84.2282 85.3913 85.2356 77.4306 88.7156C69.4699 92.1955 62.3823 98.0951 56.168 106.414C50.0383 114.62 46.4343 123.034 45.356 131.655C44.2776 140.276 45.6531 148.609 49.4825 156.654C53.3401 164.661 59.6177 171.913 68.3152 178.41L68.4286 178.494C77.1261 184.991 85.8801 188.967 94.6905 190.423C103.463 191.85 111.83 190.824 119.791 187.344C127.751 183.864 134.811 178.002 140.968 169.759ZM123.725 156.878C120.844 160.735 117.309 163.338 113.12 164.687C108.931 166.035 104.372 166.105 99.4414 164.897C94.5018 163.623 89.4605 161.065 84.3177 157.223L84.2042 157.139C79.0235 153.269 75.1404 149.16 72.5548 144.813C69.9975 140.429 68.7901 136.051 68.9327 131.68C69.0657 127.243 70.5587 123.115 73.4117 119.295C76.3494 115.362 79.9126 112.722 84.1014 111.373C88.2902 110.024 92.8356 109.973 97.7374 111.219C102.667 112.427 107.704 114.952 112.847 118.794L112.96 118.879C118.065 122.692 121.93 126.786 124.553 131.162C127.138 135.508 128.398 139.896 128.331 144.323C128.254 148.685 126.719 152.87 123.725 156.878Z" fill="white"/>
<path d="M140.968 169.759C147.211 161.402 150.857 152.931 151.908 144.348C152.986 135.727 151.582 127.432 147.696 119.463C143.801 111.427 137.504 104.161 128.807 97.6644L128.693 97.5797C119.996 91.0829 111.261 87.1208 102.488 85.6934C93.7439 84.2282 85.3913 85.2356 77.4306 88.7156C69.4699 92.1955 62.3823 98.0951 56.168 106.414C50.0383 114.62 46.4343 123.034 45.356 131.655C44.2776 140.276 45.6531 148.609 49.4825 156.654C53.3401 164.661 59.6177 171.913 68.3152 178.41L68.4286 178.494C77.1261 184.991 85.8801 188.967 94.6905 190.423C103.463 191.85 111.83 190.824 119.791 187.344C127.751 183.864 134.811 178.002 140.968 169.759ZM123.725 156.878C120.844 160.735 117.309 163.338 113.12 164.687C108.931 166.035 104.372 166.105 99.4414 164.897C94.5018 163.623 89.4605 161.065 84.3177 157.223L84.2042 157.139C79.0235 153.269 75.1404 149.16 72.5548 144.813C69.9975 140.429 68.7901 136.051 68.9327 131.68C69.0657 127.243 70.5587 123.115 73.4117 119.295C76.3494 115.362 79.9126 112.722 84.1014 111.373C88.2902 110.024 92.8356 109.973 97.7374 111.219C102.667 112.427 107.704 114.952 112.847 118.794L112.96 118.879C118.065 122.692 121.93 126.786 124.553 131.162C127.138 135.508 128.398 139.896 128.331 144.323C128.254 148.685 126.719 152.87 123.725 156.878Z" stroke="white"/>
<path d="M191.194 94.4322L169.66 78.3471L180.168 64.2799C184.716 58.1916 187.498 52.0218 188.515 45.7705C189.494 39.4909 188.746 33.5121 186.271 27.8339C183.787 22.0897 179.633 17.0425 173.809 12.6925L173.696 12.6077C167.835 8.22943 161.816 5.67809 155.641 4.95372C149.456 4.16328 143.492 5.12828 137.748 7.84872C131.967 10.5409 126.802 14.9311 122.254 21.0194L109.951 37.4901L105.83 43.0067L97.9914 53.5004C96.9999 54.8278 97.2721 56.7077 98.5995 57.6992L175.644 115.249C176.971 116.241 178.851 115.969 179.842 114.641L191.802 98.631C192.793 97.3036 192.521 95.4238 191.194 94.4322ZM127.742 47.0352L134.521 37.9595C137.798 33.573 141.451 30.9698 145.48 30.1502C149.538 29.2927 153.703 30.46 157.976 33.6519L158.09 33.7366C162.325 36.9003 164.626 40.5633 164.993 44.7257C165.388 48.8503 163.947 53.1059 160.67 57.4924L153.891 66.5681L127.742 47.0352Z" fill="white"/>
<path d="M191.194 94.4322L169.66 78.3471L180.168 64.2799C184.716 58.1916 187.498 52.0218 188.515 45.7705C189.494 39.4909 188.746 33.5121 186.271 27.8339C183.787 22.0897 179.633 17.0425 173.809 12.6925L173.696 12.6077C167.835 8.22943 161.816 5.67809 155.641 4.95372C149.456 4.16328 143.492 5.12828 137.748 7.84872C131.967 10.5409 126.802 14.9311 122.254 21.0194L109.951 37.4901L105.83 43.0067L97.9914 53.5004C96.9999 54.8278 97.2721 56.7077 98.5995 57.6992L175.644 115.249C176.971 116.241 178.851 115.969 179.842 114.641L191.802 98.631C192.793 97.3036 192.521 95.4238 191.194 94.4322ZM127.742 47.0352L134.521 37.9595C137.798 33.573 141.451 30.9698 145.48 30.1502C149.538 29.2927 153.703 30.46 157.976 33.6519L158.09 33.7366C162.325 36.9003 164.626 40.5633 164.993 44.7257C165.388 48.8503 163.947 53.1059 160.67 57.4924L153.891 66.5681L127.742 47.0352Z" stroke="white"/>
<path d="M161.005 169.759C167.247 161.402 170.894 152.931 171.944 144.348C173.022 135.727 171.618 127.432 167.733 119.463C163.837 111.427 157.541 104.161 148.843 97.6644L148.73 97.5797C140.032 91.0829 131.297 87.1208 122.525 85.6934C113.78 84.2282 105.428 85.2356 97.4669 88.7156C89.5061 92.1955 82.4186 98.0951 76.2042 106.414C70.0746 114.62 66.4706 123.034 65.3922 131.655C64.3139 140.276 65.6894 148.609 69.5188 156.654C73.3764 164.661 79.6539 171.913 88.3514 178.41L88.4649 178.494C97.1624 184.991 105.916 188.967 114.727 190.423C123.499 191.85 131.866 190.824 139.827 187.344C147.788 183.864 154.847 178.002 161.005 169.759ZM143.761 156.878C140.88 160.735 137.345 163.338 133.156 164.687C128.967 166.035 124.408 166.105 119.478 164.897C114.538 163.623 109.497 161.065 104.354 157.223L104.24 157.139C99.0598 153.269 95.1767 149.16 92.5911 144.813C90.0338 140.429 88.8264 136.051 88.969 131.68C89.102 127.243 90.595 123.115 93.4479 119.295C96.3856 115.362 99.9489 112.722 104.138 111.373C108.326 110.024 112.872 109.973 117.774 111.219C122.704 112.427 127.74 114.952 132.883 118.794L132.997 118.879C138.102 122.692 141.966 126.786 144.589 131.162C147.175 135.508 148.434 139.896 148.367 144.323C148.291 148.685 146.755 152.87 143.761 156.878Z" fill="white"/>
<path d="M161.005 169.759C167.247 161.402 170.894 152.931 171.944 144.348C173.022 135.727 171.618 127.432 167.733 119.463C163.837 111.427 157.541 104.161 148.843 97.6644L148.73 97.5797C140.032 91.0829 131.297 87.1208 122.525 85.6934C113.78 84.2282 105.428 85.2356 97.4669 88.7156C89.5061 92.1955 82.4186 98.0951 76.2042 106.414C70.0746 114.62 66.4706 123.034 65.3922 131.655C64.3139 140.276 65.6894 148.609 69.5188 156.654C73.3764 164.661 79.6539 171.913 88.3514 178.41L88.4649 178.494C97.1624 184.991 105.916 188.967 114.727 190.423C123.499 191.85 131.866 190.824 139.827 187.344C147.788 183.864 154.847 178.002 161.005 169.759ZM143.761 156.878C140.88 160.735 137.345 163.338 133.156 164.687C128.967 166.035 124.408 166.105 119.478 164.897C114.538 163.623 109.497 161.065 104.354 157.223L104.24 157.139C99.0598 153.269 95.1767 149.16 92.5911 144.813C90.0338 140.429 88.8264 136.051 88.969 131.68C89.102 127.243 90.595 123.115 93.4479 119.295C96.3856 115.362 99.9489 112.722 104.138 111.373C108.326 110.024 112.872 109.973 117.774 111.219C122.704 112.427 127.74 114.952 132.883 118.794L132.997 118.879C138.102 122.692 141.966 126.786 144.589 131.162C147.175 135.508 148.434 139.896 148.367 144.323C148.291 148.685 146.755 152.87 143.761 156.878Z" stroke="white"/>
<path d="M211.23 94.4322L189.696 78.3471L200.204 64.2799C204.752 58.1916 207.534 52.0218 208.551 45.7705C209.53 39.4909 208.782 33.5121 206.308 27.8339C203.823 22.0897 199.669 17.0425 193.846 12.6925L193.732 12.6077C187.871 8.22943 181.852 5.67809 175.677 4.95372C169.492 4.16328 163.528 5.12828 157.784 7.84872C152.003 10.5409 146.838 14.9311 142.29 21.0194L129.987 37.4901L125.866 43.0067L118.028 53.5004C117.036 54.8278 117.308 56.7077 118.636 57.6992L195.68 115.249C197.007 116.241 198.887 115.969 199.879 114.641L211.838 98.631C212.83 97.3036 212.557 95.4238 211.23 94.4322ZM147.778 47.0352L154.557 37.9595C157.834 33.573 161.487 30.9698 165.517 30.1502C169.574 29.2927 173.739 30.46 178.013 33.6519L178.126 33.7366C182.361 36.9003 184.662 40.5633 185.029 44.7257C185.424 48.8503 183.983 53.1059 180.707 57.4924L173.927 66.5681L147.778 47.0352Z" fill="white"/>
<path d="M211.23 94.4322L189.696 78.3471L200.204 64.2799C204.752 58.1916 207.534 52.0218 208.551 45.7705C209.53 39.4909 208.782 33.5121 206.308 27.8339C203.823 22.0897 199.669 17.0425 193.846 12.6925L193.732 12.6077C187.871 8.22943 181.852 5.67809 175.677 4.95372C169.492 4.16328 163.528 5.12828 157.784 7.84872C152.003 10.5409 146.838 14.9311 142.29 21.0194L129.987 37.4901L125.866 43.0067L118.028 53.5004C117.036 54.8278 117.308 56.7077 118.636 57.6992L195.68 115.249C197.007 116.241 198.887 115.969 199.879 114.641L211.838 98.631C212.83 97.3036 212.557 95.4238 211.23 94.4322ZM147.778 47.0352L154.557 37.9595C157.834 33.573 161.487 30.9698 165.517 30.1502C169.574 29.2927 173.739 30.46 178.013 33.6519L178.126 33.7366C182.361 36.9003 184.662 40.5633 185.029 44.7257C185.424 48.8503 183.983 53.1059 180.707 57.4924L173.927 66.5681L147.778 47.0352Z" stroke="white"/>
</mask>
<g mask="url(#mask0_3_1083)">
<rect x="-1" y="-19" width="236" height="237" fill="#151619"/>
<g style="mix-blend-mode:color-burn">
<g filter="url(#filter0_f_3_1083)">
<path d="M100.896 169.759C107.139 161.402 110.785 152.931 111.835 144.348C112.913 135.727 111.51 127.432 107.624 119.463C103.728 111.427 97.4319 104.161 88.7344 97.6644L88.621 97.5797C79.9235 91.0829 71.1884 87.1208 62.4158 85.6934C53.6714 84.2282 45.3188 85.2356 37.3581 88.7156C29.3974 92.1955 22.3098 98.0951 16.0954 106.414C9.96581 114.62 6.36182 123.034 5.28345 131.655C4.20509 140.276 5.5806 148.609 9.40999 156.654C13.2676 164.661 19.5452 171.913 28.2427 178.41L28.3561 178.494C37.0536 184.991 45.8076 188.967 54.618 190.423C63.3907 191.85 71.7574 190.824 79.7181 187.344C87.6788 183.864 94.7381 178.002 100.896 169.759ZM83.6523 156.878C80.7711 160.735 77.236 163.338 73.0472 164.687C68.8584 166.035 64.299 166.105 59.3689 164.897C54.4293 163.623 49.388 161.065 44.2451 157.223L44.1317 157.139C38.951 153.269 35.0679 149.16 32.4823 144.813C29.925 140.429 28.7176 136.051 28.8602 131.68C28.9932 127.243 30.4862 123.115 33.3392 119.295C36.2769 115.362 39.8401 112.722 44.0289 111.373C48.2177 110.024 52.763 109.973 57.6649 111.219C62.595 112.427 67.6314 114.952 72.7743 118.794L72.8878 118.879C77.9928 122.692 81.857 126.786 84.4804 131.162C87.066 135.508 88.3253 139.896 88.2583 144.323C88.1818 148.685 86.6465 152.87 83.6523 156.878Z" fill="#694EFF"/>
<path d="M121.876 88.6707L140.095 64.2799C144.643 58.1916 147.426 52.0218 148.442 45.7705C149.422 39.4909 148.674 33.5121 146.199 27.8339C143.714 22.0897 139.56 17.0425 133.737 12.6925L133.623 12.6077C127.762 8.22943 121.744 5.67809 115.568 4.95372C109.384 4.16328 103.419 5.12828 97.6756 7.84872C91.894 10.5409 86.7293 14.9311 82.1815 21.0194L63.9621 45.4102L79.9579 57.3587L94.4487 37.9595C97.7254 33.573 101.378 30.9698 105.408 30.1502C109.465 29.2927 113.631 30.46 117.904 33.6519L118.017 33.7366C122.253 36.9003 124.554 40.5633 124.92 44.7257C125.315 48.8503 123.875 53.1059 120.598 57.4924L106.107 76.8916L121.876 88.6707ZM137.974 117.045L153.525 96.2276L71.6736 35.0866L56.1235 55.9039L137.974 117.045Z" fill="#694EFF"/>
<path d="M120.932 169.759C127.175 161.402 130.821 152.931 131.871 144.348C132.95 135.727 131.546 127.432 127.66 119.463C123.765 111.427 117.468 104.161 108.771 97.6644L108.657 97.5797C99.9597 91.0829 91.2247 87.1208 82.452 85.6934C73.7076 84.2282 65.3551 85.2356 57.3943 88.7156C49.4336 92.1955 42.3461 98.0951 36.1317 106.414C30.0021 114.62 26.3981 123.034 25.3197 131.655C24.2413 140.276 25.6169 148.609 29.4462 156.654C33.3039 164.661 39.5814 171.913 48.2789 178.41L48.3924 178.494C57.0899 184.991 65.8438 188.967 74.6543 190.423C83.4269 191.85 91.7936 190.824 99.7543 187.344C107.715 183.864 114.774 178.002 120.932 169.759ZM103.689 156.878C100.807 160.735 97.2723 163.338 93.0835 164.687C88.8947 166.035 84.3353 166.105 79.4052 164.897C74.4655 163.623 69.4243 161.065 64.2814 157.223L64.168 157.139C58.9873 153.269 55.1041 149.16 52.5186 144.813C49.9613 140.429 48.7539 136.051 48.8965 131.68C49.0295 127.243 50.5225 123.115 53.3754 119.295C56.3131 115.362 59.8764 112.722 64.0652 111.373C68.254 110.024 72.7993 109.973 77.7011 111.219C82.6312 112.427 87.6677 114.952 92.8106 118.794L92.924 118.879C98.0291 122.692 101.893 126.786 104.517 131.162C107.102 135.508 108.362 139.896 108.295 144.323C108.218 148.685 106.683 152.87 103.689 156.878Z" fill="url(#paint0_linear_3_1083)"/>
<path d="M141.912 88.6707L160.132 64.2799C164.68 58.1916 167.462 52.0218 168.479 45.7705C169.458 39.4909 168.71 33.5121 166.235 27.8339C163.751 22.0897 159.597 17.0425 153.773 12.6925L153.66 12.6077C147.798 8.22943 141.78 5.67809 135.605 4.95372C129.42 4.16328 123.456 5.12828 117.712 7.84872C111.93 10.5409 106.766 14.9311 102.218 21.0194L83.9984 45.4102L99.9942 57.3587L114.485 37.9595C117.762 33.573 121.415 30.9698 125.444 30.1502C129.502 29.2927 133.667 30.46 137.94 33.6519L138.054 33.7366C142.289 36.9003 144.59 40.5633 144.957 44.7257C145.352 48.8503 143.911 53.1059 140.634 57.4924L126.143 76.8916L141.912 88.6707ZM158.011 117.045L173.561 96.2276L91.7098 35.0866L76.1598 55.9039L158.011 117.045Z" fill="url(#paint1_linear_3_1083)"/>
<path d="M140.968 169.759C147.211 161.402 150.857 152.931 151.908 144.348C152.986 135.727 151.582 127.432 147.696 119.463C143.801 111.427 137.504 104.161 128.807 97.6644L128.693 97.5797C119.996 91.0829 111.261 87.1208 102.488 85.6934C93.7439 84.2282 85.3913 85.2356 77.4306 88.7156C69.4699 92.1955 62.3823 98.0951 56.168 106.414C50.0383 114.62 46.4343 123.034 45.356 131.655C44.2776 140.276 45.6531 148.609 49.4825 156.654C53.3401 164.661 59.6177 171.913 68.3152 178.41L68.4286 178.494C77.1261 184.991 85.8801 188.967 94.6905 190.423C103.463 191.85 111.83 190.824 119.791 187.344C127.751 183.864 134.811 178.002 140.968 169.759ZM123.725 156.878C120.844 160.735 117.309 163.338 113.12 164.687C108.931 166.035 104.372 166.105 99.4414 164.897C94.5018 163.623 89.4605 161.065 84.3177 157.223L84.2042 157.139C79.0235 153.269 75.1404 149.16 72.5548 144.813C69.9975 140.429 68.7901 136.051 68.9327 131.68C69.0657 127.243 70.5587 123.115 73.4117 119.295C76.3494 115.362 79.9126 112.722 84.1014 111.373C88.2902 110.024 92.8356 109.973 97.7374 111.219C102.667 112.427 107.704 114.952 112.847 118.794L112.96 118.879C118.065 122.692 121.93 126.786 124.553 131.162C127.138 135.508 128.398 139.896 128.331 144.323C128.254 148.685 126.719 152.87 123.725 156.878Z" fill="#694EFF"/>
<path d="M161.949 88.6707L180.168 64.2799C184.716 58.1916 187.498 52.0218 188.515 45.7705C189.494 39.4909 188.746 33.5121 186.271 27.8339C183.787 22.0897 179.633 17.0425 173.809 12.6925L173.696 12.6077C167.835 8.22943 161.816 5.67809 155.641 4.95372C149.456 4.16328 143.492 5.12828 137.748 7.84872C131.967 10.5409 126.802 14.9311 122.254 21.0194L104.035 45.4102L120.03 57.3587L134.521 37.9595C137.798 33.573 141.451 30.9698 145.48 30.1502C149.538 29.2927 153.703 30.46 157.976 33.6519L158.09 33.7366C162.325 36.9003 164.626 40.5633 164.993 44.7257C165.388 48.8503 163.947 53.1059 160.67 57.4924L146.18 76.8916L161.949 88.6707ZM178.047 117.045L193.597 96.2276L111.746 35.0866L96.196 55.9039L178.047 117.045Z" fill="#694EFF"/>
<path d="M161.005 169.759C167.247 161.402 170.894 152.931 171.944 144.348C173.022 135.727 171.618 127.432 167.733 119.463C163.837 111.427 157.541 104.161 148.843 97.6644L148.73 97.5797C140.032 91.0829 131.297 87.1208 122.525 85.6934C113.78 84.2282 105.428 85.2356 97.4669 88.7156C89.5061 92.1955 82.4186 98.0951 76.2042 106.414C70.0746 114.62 66.4706 123.034 65.3922 131.655C64.3139 140.276 65.6894 148.609 69.5188 156.654C73.3764 164.661 79.6539 171.913 88.3514 178.41L88.4649 178.494C97.1624 184.991 105.916 188.967 114.727 190.423C123.499 191.85 131.866 190.824 139.827 187.344C147.788 183.864 154.847 178.002 161.005 169.759ZM143.761 156.878C140.88 160.735 137.345 163.338 133.156 164.687C128.967 166.035 124.408 166.105 119.478 164.897C114.538 163.623 109.497 161.065 104.354 157.223L104.24 157.139C99.0598 153.269 95.1767 149.16 92.5911 144.813C90.0338 140.429 88.8264 136.051 88.969 131.68C89.102 127.243 90.595 123.115 93.4479 119.295C96.3856 115.362 99.9489 112.722 104.138 111.373C108.326 110.024 112.872 109.973 117.774 111.219C122.704 112.427 127.74 114.952 132.883 118.794L132.997 118.879C138.102 122.692 141.966 126.786 144.589 131.162C147.175 135.508 148.434 139.896 148.367 144.323C148.291 148.685 146.755 152.87 143.761 156.878Z" fill="url(#paint2_linear_3_1083)"/>
<path d="M181.985 88.6707L200.204 64.2799C204.752 58.1916 207.534 52.0218 208.551 45.7705C209.53 39.4909 208.782 33.5121 206.308 27.8339C203.823 22.0897 199.669 17.0425 193.846 12.6925L193.732 12.6077C187.871 8.22943 181.852 5.67809 175.677 4.95372C169.492 4.16328 163.528 5.12828 157.784 7.84872C152.003 10.5409 146.838 14.9311 142.29 21.0194L124.071 45.4102L140.067 57.3587L154.557 37.9595C157.834 33.573 161.487 30.9698 165.517 30.1502C169.574 29.2927 173.739 30.46 178.013 33.6519L178.126 33.7366C182.361 36.9003 184.662 40.5633 185.029 44.7257C185.424 48.8503 183.983 53.1059 180.707 57.4924L166.216 76.8916L181.985 88.6707ZM198.083 117.045L213.633 96.2276L131.782 35.0866L116.232 55.9039L198.083 117.045Z" fill="url(#paint3_linear_3_1083)"/>
</g>
</g>
<path d="M100.896 169.759C107.139 161.402 110.785 152.931 111.835 144.348C112.913 135.727 111.51 127.432 107.624 119.463C103.728 111.427 97.4319 104.161 88.7344 97.6644L88.621 97.5797C79.9235 91.0829 71.1884 87.1208 62.4158 85.6934C53.6714 84.2282 45.3188 85.2356 37.3581 88.7156C29.3974 92.1955 22.3098 98.0951 16.0954 106.414C9.96581 114.62 6.36182 123.034 5.28345 131.655C4.20509 140.276 5.5806 148.609 9.40999 156.654C13.2676 164.661 19.5452 171.913 28.2427 178.41L28.3561 178.494C37.0536 184.991 45.8076 188.967 54.618 190.423C63.3907 191.85 71.7574 190.824 79.7181 187.344C87.6788 183.864 94.7381 178.002 100.896 169.759ZM83.6523 156.878C80.7711 160.735 77.236 163.338 73.0472 164.687C68.8584 166.035 64.299 166.105 59.3689 164.897C54.4293 163.623 49.388 161.065 44.2451 157.223L44.1317 157.139C38.951 153.269 35.0679 149.16 32.4823 144.813C29.925 140.429 28.7176 136.051 28.8602 131.68C28.9932 127.243 30.4862 123.115 33.3392 119.295C36.2769 115.362 39.8401 112.722 44.0289 111.373C48.2177 110.024 52.763 109.973 57.6649 111.219C62.595 112.427 67.6314 114.952 72.7743 118.794L72.8878 118.879C77.9928 122.692 81.857 126.786 84.4804 131.162C87.066 135.508 88.3253 139.896 88.2583 144.323C88.1818 148.685 86.6465 152.87 83.6523 156.878Z" fill="#694EFF"/>
<path d="M119.473 86.8753C120.8 87.8669 122.68 87.5946 123.671 86.2672L140.095 64.2799C144.643 58.1916 147.426 52.0218 148.442 45.7705C149.422 39.4909 148.674 33.5121 146.199 27.8339C143.714 22.0897 139.56 17.0425 133.737 12.6925L133.623 12.6077C127.762 8.22943 121.744 5.67809 115.568 4.95372C109.384 4.16328 103.419 5.12828 97.6756 7.84872C91.894 10.5409 86.7293 14.9311 82.1815 21.0194L65.7575 43.0067C64.7659 44.3341 65.0382 46.214 66.3656 47.2055L77.5545 55.5634C78.8819 56.5549 80.7617 56.2826 81.7533 54.9552L94.4487 37.9595C97.7254 33.573 101.378 30.9698 105.408 30.1502C109.465 29.2927 113.631 30.46 117.904 33.6519L118.017 33.7366C122.253 36.9003 124.554 40.5633 124.92 44.7257C125.315 48.8503 123.875 53.1059 120.598 57.4924L107.902 74.4881C106.911 75.8155 107.183 77.6954 108.511 78.687L119.473 86.8753ZM135.571 115.249C136.898 116.241 138.778 115.969 139.77 114.641L151.729 98.631C152.721 97.3036 152.448 95.4238 151.121 94.4322L74.0771 36.882C72.7497 35.8904 70.8698 36.1627 69.8782 37.4901L57.9189 53.5004C56.9273 54.8278 57.1996 56.7077 58.527 57.6992L135.571 115.249Z" fill="#694EFF"/>
<path d="M120.932 169.759C127.175 161.402 130.821 152.931 131.871 144.348C132.95 135.727 131.546 127.432 127.66 119.463C123.765 111.427 117.468 104.161 108.771 97.6644L108.657 97.5797C99.9597 91.0829 91.2247 87.1208 82.452 85.6934C73.7076 84.2282 65.3551 85.2356 57.3943 88.7156C49.4336 92.1955 42.3461 98.0951 36.1317 106.414C30.0021 114.62 26.3981 123.034 25.3197 131.655C24.2413 140.276 25.6169 148.609 29.4462 156.654C33.3039 164.661 39.5814 171.913 48.2789 178.41L48.3924 178.494C57.0899 184.991 65.8438 188.967 74.6543 190.423C83.4269 191.85 91.7936 190.824 99.7543 187.344C107.715 183.864 114.774 178.002 120.932 169.759ZM103.689 156.878C100.807 160.735 97.2723 163.338 93.0835 164.687C88.8947 166.035 84.3353 166.105 79.4052 164.897C74.4655 163.623 69.4243 161.065 64.2814 157.223L64.168 157.139C58.9873 153.269 55.1041 149.16 52.5186 144.813C49.9613 140.429 48.7539 136.051 48.8965 131.68C49.0295 127.243 50.5225 123.115 53.3754 119.295C56.3131 115.362 59.8764 112.722 64.0652 111.373C68.254 110.024 72.7993 109.973 77.7011 111.219C82.6312 112.427 87.6677 114.952 92.8106 118.794L92.924 118.879C98.0291 122.692 101.893 126.786 104.517 131.162C107.102 135.508 108.362 139.896 108.295 144.323C108.218 148.685 106.683 152.87 103.689 156.878Z" fill="url(#paint4_linear_3_1083)"/>
<path d="M139.509 86.8753C140.836 87.8669 142.716 87.5946 143.708 86.2672L160.132 64.2799C164.68 58.1916 167.462 52.0218 168.479 45.7705C169.458 39.4909 168.71 33.5121 166.235 27.8339C163.751 22.0897 159.597 17.0425 153.773 12.6925L153.66 12.6077C147.798 8.22943 141.78 5.67809 135.605 4.95372C129.42 4.16328 123.456 5.12828 117.712 7.84872C111.93 10.5409 106.766 14.9311 102.218 21.0194L85.7937 43.0067C84.8022 44.3341 85.0744 46.214 86.4019 47.2055L97.5907 55.5634C98.9181 56.5549 100.798 56.2826 101.79 54.9552L114.485 37.9595C117.762 33.573 121.415 30.9698 125.444 30.1502C129.502 29.2927 133.667 30.46 137.94 33.6519L138.054 33.7366C142.289 36.9003 144.59 40.5633 144.957 44.7257C145.352 48.8503 143.911 53.1059 140.634 57.4924L127.939 74.4881C126.947 75.8155 127.219 77.6954 128.547 78.687L139.509 86.8753ZM155.607 115.249C156.935 116.241 158.815 115.969 159.806 114.641L171.765 98.631C172.757 97.3036 172.485 95.4238 171.157 94.4322L94.1133 36.882C92.7859 35.8904 90.906 36.1627 89.9145 37.4901L77.9551 53.5004C76.9636 54.8278 77.2359 56.7077 78.5633 57.6992L155.607 115.249Z" fill="url(#paint5_linear_3_1083)"/>
<path d="M140.968 169.759C147.211 161.402 150.857 152.931 151.908 144.348C152.986 135.727 151.582 127.432 147.696 119.463C143.801 111.427 137.504 104.161 128.807 97.6644L128.693 97.5797C119.996 91.0829 111.261 87.1208 102.488 85.6934C93.7439 84.2282 85.3913 85.2356 77.4306 88.7156C69.4699 92.1955 62.3823 98.0951 56.168 106.414C50.0383 114.62 46.4343 123.034 45.356 131.655C44.2776 140.276 45.6531 148.609 49.4825 156.654C53.3401 164.661 59.6177 171.913 68.3152 178.41L68.4286 178.494C77.1261 184.991 85.8801 188.967 94.6905 190.423C103.463 191.85 111.83 190.824 119.791 187.344C127.751 183.864 134.811 178.002 140.968 169.759ZM123.725 156.878C120.844 160.735 117.309 163.338 113.12 164.687C108.931 166.035 104.372 166.105 99.4414 164.897C94.5018 163.623 89.4605 161.065 84.3177 157.223L84.2042 157.139C79.0235 153.269 75.1404 149.16 72.5548 144.813C69.9975 140.429 68.7901 136.051 68.9327 131.68C69.0657 127.243 70.5587 123.115 73.4117 119.295C76.3494 115.362 79.9126 112.722 84.1014 111.373C88.2902 110.024 92.8356 109.973 97.7374 111.219C102.667 112.427 107.704 114.952 112.847 118.794L112.96 118.879C118.065 122.692 121.93 126.786 124.553 131.162C127.138 135.508 128.398 139.896 128.331 144.323C128.254 148.685 126.719 152.87 123.725 156.878Z" fill="#694EFF"/>
<path d="M159.545 86.8753C160.873 87.8669 162.752 87.5946 163.744 86.2672L180.168 64.2799C184.716 58.1916 187.498 52.0218 188.515 45.7705C189.494 39.4909 188.746 33.5121 186.271 27.8339C183.787 22.0897 179.633 17.0425 173.809 12.6925L173.696 12.6077C167.835 8.22943 161.816 5.67809 155.641 4.95372C149.456 4.16328 143.492 5.12828 137.748 7.84872C131.967 10.5409 126.802 14.9311 122.254 21.0194L105.83 43.0067C104.838 44.3341 105.111 46.214 106.438 47.2055L117.627 55.5634C118.954 56.5549 120.834 56.2826 121.826 54.9552L134.521 37.9595C137.798 33.573 141.451 30.9698 145.48 30.1502C149.538 29.2927 153.703 30.46 157.976 33.6519L158.09 33.7366C162.325 36.9003 164.626 40.5633 164.993 44.7257C165.388 48.8503 163.947 53.1059 160.67 57.4924L147.975 74.4881C146.983 75.8155 147.256 77.6954 148.583 78.687L159.545 86.8753ZM175.644 115.249C176.971 116.241 178.851 115.969 179.842 114.641L191.802 98.631C192.793 97.3036 192.521 95.4238 191.194 94.4322L114.15 36.882C112.822 35.8904 110.942 36.1627 109.951 37.4901L97.9914 53.5004C96.9999 54.8278 97.2721 56.7077 98.5995 57.6992L175.644 115.249Z" fill="#694EFF"/>
<path d="M161.005 169.759C167.247 161.402 170.894 152.931 171.944 144.348C173.022 135.727 171.618 127.432 167.733 119.463C163.837 111.427 157.541 104.161 148.843 97.6644L148.73 97.5797C140.032 91.0829 131.297 87.1208 122.525 85.6934C113.78 84.2282 105.428 85.2356 97.4669 88.7156C89.5061 92.1955 82.4186 98.0951 76.2042 106.414C70.0746 114.62 66.4706 123.034 65.3922 131.655C64.3139 140.276 65.6894 148.609 69.5188 156.654C73.3764 164.661 79.6539 171.913 88.3514 178.41L88.4649 178.494C97.1624 184.991 105.916 188.967 114.727 190.423C123.499 191.85 131.866 190.824 139.827 187.344C147.788 183.864 154.847 178.002 161.005 169.759ZM143.761 156.878C140.88 160.735 137.345 163.338 133.156 164.687C128.967 166.035 124.408 166.105 119.478 164.897C114.538 163.623 109.497 161.065 104.354 157.223L104.24 157.139C99.0598 153.269 95.1767 149.16 92.5911 144.813C90.0338 140.429 88.8264 136.051 88.969 131.68C89.102 127.243 90.595 123.115 93.4479 119.295C96.3856 115.362 99.9489 112.722 104.138 111.373C108.326 110.024 112.872 109.973 117.774 111.219C122.704 112.427 127.74 114.952 132.883 118.794L132.997 118.879C138.102 122.692 141.966 126.786 144.589 131.162C147.175 135.508 148.434 139.896 148.367 144.323C148.291 148.685 146.755 152.87 143.761 156.878Z" fill="url(#paint6_linear_3_1083)"/>
<path d="M179.581 86.8753C180.909 87.8669 182.789 87.5946 183.78 86.2672L200.204 64.2799C204.752 58.1916 207.534 52.0218 208.551 45.7705C209.53 39.4909 208.782 33.5121 206.308 27.8339C203.823 22.0897 199.669 17.0425 193.846 12.6925L193.732 12.6077C187.871 8.22943 181.852 5.67809 175.677 4.95372C169.492 4.16328 163.528 5.12828 157.784 7.84872C152.003 10.5409 146.838 14.9311 142.29 21.0194L125.866 43.0067C124.875 44.3341 125.147 46.214 126.474 47.2055L137.663 55.5634C138.991 56.5549 140.871 56.2826 141.862 54.9552L154.557 37.9595C157.834 33.573 161.487 30.9698 165.517 30.1502C169.574 29.2927 173.739 30.46 178.013 33.6519L178.126 33.7366C182.361 36.9003 184.662 40.5633 185.029 44.7257C185.424 48.8503 183.983 53.1059 180.707 57.4924L168.011 74.4881C167.02 75.8155 167.292 77.6954 168.619 78.687L179.581 86.8753ZM195.68 115.249C197.007 116.241 198.887 115.969 199.879 114.641L211.838 98.631C212.83 97.3036 212.557 95.4238 211.23 94.4322L134.186 36.882C132.858 35.8904 130.979 36.1627 129.987 37.4901L118.028 53.5004C117.036 54.8278 117.308 56.7077 118.636 57.6992L195.68 115.249Z" fill="url(#paint7_linear_3_1083)"/>
<g style="mix-blend-mode:hue">
<path fill-rule="evenodd" clip-rule="evenodd" d="M-39.4512 64.8144C-30.4528 55.8687 -14.9828 64.4188 -2.31957 65.2177C7.06763 65.8099 16.0019 66.0201 24.963 68.8782C35.7052 72.3045 49.8858 73.1349 54.6066 83.3743C59.3467 93.6555 47.2612 104.195 46.452 115.488C45.5126 128.596 57.1101 143.068 49.5582 153.824C42.1908 164.317 25.9746 162.953 13.1537 162.912C1.97588 162.876 -8.66586 159.428 -18.2074 153.605C-27.1522 148.147 -35.0661 140.783 -39.0147 131.077C-42.7693 121.847 -39.1687 111.88 -39.2343 101.916C-39.3179 89.2389 -48.442 73.7526 -39.4512 64.8144Z" fill="#C4C4C4"/>
<path fill-rule="evenodd" clip-rule="evenodd" d="M181.421 27.2032C181.823 16.7222 173.219 4.05161 181.238 -2.70434C189.267 -9.46816 200.374 0.687741 210.707 2.53217C222.36 4.61205 237.65 -1.55204 243.93 8.48564C250.32 18.7012 240.843 31.0662 235.229 41.7289C229.989 51.681 224.534 62.1387 213.845 65.6263C202.028 69.4817 186.85 69.6307 178.832 60.1293C171.364 51.2787 180.978 38.7776 181.421 27.2032Z" fill="#FF6CFF"/>
<path fill-rule="evenodd" clip-rule="evenodd" d="M63.6916 186.525C56.4218 194.086 54.4216 209.271 43.9394 208.983C33.445 208.695 31.904 193.724 25.4132 185.475C18.0939 176.173 2.57536 170.608 4.56071 158.936C6.58126 147.056 21.8825 144.125 33.166 139.895C43.6975 135.947 54.7256 131.764 65.0282 136.268C76.4171 141.246 87.8518 151.229 87.5213 163.657C87.2134 175.233 71.7196 178.176 63.6916 186.525Z" fill="#FF6CFF"/>
<path fill-rule="evenodd" clip-rule="evenodd" d="M139.925 122.055C152.191 118.807 161.313 133.947 171.88 140.971C179.714 146.177 187.346 150.826 193.677 157.782C201.267 166.12 213.133 173.93 212.101 185.158C211.066 196.432 195.329 199.517 188.983 208.892C181.615 219.774 184.423 238.106 172.505 243.645C160.878 249.048 147.516 239.759 136.433 233.313C126.771 227.693 119.279 219.386 113.927 209.572C108.91 200.373 105.738 190.039 107.172 179.659C108.535 169.788 116.637 162.957 121.562 154.295C127.828 143.274 127.67 125.301 139.925 122.055Z" fill="#C4C4C4"/>
<path fill-rule="evenodd" clip-rule="evenodd" d="M54.5994 62.0824C45.7232 56.4942 30.4482 57.6102 28.6072 47.287C26.7641 36.9517 41.1127 32.411 47.8767 24.3844C55.5041 15.333 57.811 -0.990883 69.6437 -1.41028C81.6861 -1.83711 87.6555 12.5534 94.0827 22.7466C100.082 32.2605 106.411 42.2132 104.087 53.2143C101.517 65.3755 94.057 78.5947 81.8197 80.7876C70.4206 82.8303 64.4015 68.2534 54.5994 62.0824Z" fill="#FF6CFF"/>
<path fill-rule="evenodd" clip-rule="evenodd" d="M62.8517 -43.6098C69.7387 -50.4566 81.5789 -43.9126 91.2709 -43.3011C98.4556 -42.8479 105.294 -42.687 112.152 -40.4995C120.374 -37.8772 131.227 -37.2416 134.84 -29.4047C138.468 -21.5358 129.218 -13.4689 128.599 -4.82614C127.88 5.20665 136.756 16.2828 130.976 24.5148C125.338 32.5457 112.926 31.5022 103.114 31.4706C94.5585 31.443 86.4137 28.8038 79.1109 24.3474C72.2649 20.1697 66.2079 14.534 63.1858 7.10511C60.3121 0.0409736 63.0679 -7.5871 63.0176 -15.2132C62.9537 -24.9162 55.9704 -36.7688 62.8517 -43.6098Z" fill="#C4C4C4"/>
</g>
</g>
</g>
<defs>
<filter id="filter0_f_3_1083" x="-12.072" y="-12.3132" width="242.705" height="220.359" filterUnits="userSpaceOnUse" color-interpolation-filters="sRGB">
<feFlood flood-opacity="0" result="BackgroundImageFix"/>
<feBlend mode="normal" in="SourceGraphic" in2="BackgroundImageFix" result="shape"/>
<feGaussianBlur stdDeviation="8.5" result="effect1_foregroundBlur_3_1083"/>
</filter>
<linearGradient id="paint0_linear_3_1083" x1="166.487" y1="198.018" x2="5.36199" y2="93.1911" gradientUnits="userSpaceOnUse">
<stop offset="0.213542" stop-color="#F3F3F3"/>
<stop offset="1" stop-color="#F3F3F3" stop-opacity="0"/>
</linearGradient>
<linearGradient id="paint1_linear_3_1083" x1="225.774" y1="112.469" x2="69.0977" y2="13.4083" gradientUnits="userSpaceOnUse">
<stop offset="0.213542" stop-color="#F3F3F3"/>
<stop offset="1" stop-color="#F3F3F3" stop-opacity="0"/>
</linearGradient>
<linearGradient id="paint2_linear_3_1083" x1="76.2254" y1="106.386" x2="161.026" y2="169.73" gradientUnits="userSpaceOnUse">
<stop stop-color="white"/>
<stop offset="0.484375" stop-color="white" stop-opacity="0.901042"/>
<stop offset="1" stop-color="white" stop-opacity="0"/>
</linearGradient>
<linearGradient id="paint3_linear_3_1083" x1="140.49" y1="23.4301" x2="222.34" y2="84.571" gradientUnits="userSpaceOnUse">
<stop stop-color="white"/>
<stop offset="0.484375" stop-color="white" stop-opacity="0.901042"/>
<stop offset="1" stop-color="white" stop-opacity="0"/>
</linearGradient>
<linearGradient id="paint4_linear_3_1083" x1="166.487" y1="198.018" x2="5.36199" y2="93.1911" gradientUnits="userSpaceOnUse">
<stop offset="0.213542" stop-color="#F3F3F3"/>
<stop offset="1" stop-color="#F3F3F3" stop-opacity="0"/>
</linearGradient>
<linearGradient id="paint5_linear_3_1083" x1="225.774" y1="112.469" x2="69.0977" y2="13.4083" gradientUnits="userSpaceOnUse">
<stop offset="0.213542" stop-color="#F3F3F3"/>
<stop offset="1" stop-color="#F3F3F3" stop-opacity="0"/>
</linearGradient>
<linearGradient id="paint6_linear_3_1083" x1="67.4474" y1="96.2323" x2="162.431" y2="167.255" gradientUnits="userSpaceOnUse">
<stop stop-color="white"/>
<stop offset="0.524347" stop-color="white" stop-opacity="0.901042"/>
<stop offset="1" stop-color="white" stop-opacity="0"/>
</linearGradient>
<linearGradient id="paint7_linear_3_1083" x1="131.738" y1="14.0028" x2="223.411" y2="82.5637" gradientUnits="userSpaceOnUse">
<stop stop-color="white"/>
<stop offset="0.524347" stop-color="white" stop-opacity="0.901042"/>
<stop offset="1" stop-color="white" stop-opacity="0"/>
</linearGradient>
<clipPath id="clip0_3_1083">
<rect width="234" height="200" fill="white"/>
</clipPath>
</defs>
</svg>
