<svg width="281" height="281" viewBox="0 0 281 281" fill="none" xmlns="http://www.w3.org/2000/svg">
<g clip-path="url(#clip0_3_1084)">
<rect width="281" height="281" fill="#151619"/>
<mask id="mask0_3_1084" style="mask-type:alpha" maskUnits="userSpaceOnUse" x="-59" y="-59" width="400" height="400">
<path d="M30.2498 199.158L30.2533 199.165L30.2569 199.173C34.4072 207.787 41.0982 215.454 50.1481 222.214L50.2616 222.298C59.3122 229.059 68.5776 233.312 78.0475 234.876L78.056 234.878C87.4773 236.411 96.5272 235.307 105.12 231.551C113.731 227.787 121.246 221.493 127.7 212.853C134.231 204.11 138.169 195.08 139.308 185.78C140.472 176.473 138.947 167.497 134.771 158.932C130.584 150.297 123.878 142.62 114.829 135.86L114.716 135.776C105.668 129.017 96.4213 124.777 86.9858 123.24C77.5891 121.667 68.5501 122.752 59.9562 126.509C51.3402 130.275 43.7979 136.609 37.2914 145.32C30.864 153.924 26.9767 162.898 25.8105 172.22C24.6471 181.522 26.141 190.526 30.2498 199.158ZM56.3584 172.794L56.3587 172.785C56.4685 169.12 57.6871 165.678 60.1432 162.39C62.6986 158.969 65.6833 156.805 69.1016 155.705C72.5747 154.586 76.4413 154.503 80.8026 155.611L80.8172 155.615L80.8318 155.619C85.2022 156.69 89.8172 158.966 94.6797 162.598L94.7932 162.683C99.619 166.288 103.137 170.058 105.476 173.956C107.775 177.824 108.814 181.578 108.759 185.267C108.696 188.788 107.469 192.275 104.848 195.783C102.359 199.116 99.4066 201.25 95.9746 202.355C92.4978 203.474 88.6134 203.576 84.2226 202.503C79.8279 201.366 75.2009 199.051 70.3397 195.419L70.2263 195.335C65.3209 191.67 61.7933 187.891 59.498 184.037C57.2235 180.133 56.2406 176.403 56.3584 172.794Z" fill="white" stroke="white" stroke-width="7"/>
<path d="M175.897 87.3325L175.899 87.3211L175.901 87.3097C176.979 80.3938 176.155 73.7434 173.41 67.4413C170.646 61.0524 166.064 55.5439 159.831 50.8884L159.718 50.8037C153.456 46.1265 146.875 43.2903 139.994 42.4797C133.143 41.6074 126.515 42.6861 120.188 45.6805C113.794 48.6601 108.203 53.4649 103.377 59.9248L91.0742 76.3955L86.9534 81.9121L79.1148 92.4058C76.9665 95.2819 77.5564 99.3549 80.4324 101.503L157.476 159.054C160.352 161.202 164.426 160.612 166.574 157.736L178.533 141.726C180.682 138.85 180.092 134.777 177.216 132.628L158.486 118.638L166.9 107.374C171.717 100.925 174.773 94.2403 175.897 87.3325ZM141.794 96.3979L137.109 102.669L116.568 87.3257L121.253 81.0541C124.188 77.1241 127.164 75.1782 130.105 74.58L130.118 74.5773L130.131 74.5746C132.938 73.9814 136.096 74.6823 139.809 77.456L139.923 77.5407C143.586 80.2775 145.177 83.1138 145.434 86.033L145.435 86.0462L145.436 86.0594C145.725 89.0707 144.721 92.4793 141.794 96.3979Z" fill="white" stroke="white" stroke-width="7"/>
<path d="M50.286 199.158L50.2895 199.165L50.2931 199.173C54.4434 207.787 61.1344 215.454 70.1844 222.214L70.2978 222.298C79.3484 229.059 88.6138 233.312 98.0838 234.876L98.0922 234.878C107.513 236.411 116.563 235.307 125.156 231.551C133.767 227.787 141.283 221.493 147.736 212.853C154.267 204.11 158.206 195.08 159.345 185.78C160.508 176.473 158.983 167.497 154.807 158.932C150.62 150.297 143.914 142.62 134.865 135.86L134.752 135.776C125.704 129.017 116.458 124.777 107.022 123.24C97.6253 121.667 88.5864 122.752 79.9925 126.509C71.3765 130.275 63.8341 136.609 57.3276 145.32C50.9002 153.924 47.0129 162.898 45.8468 172.22C44.6833 181.522 46.1773 190.526 50.286 199.158ZM76.3946 172.794L76.3949 172.785C76.5047 169.12 77.7234 165.678 80.1795 162.39C82.7349 158.969 85.7196 156.805 89.1378 155.705C92.611 154.586 96.4775 154.503 100.839 155.611L100.853 155.615L100.868 155.619C105.238 156.69 109.853 158.966 114.716 162.598L114.829 162.683C119.655 166.288 123.173 170.058 125.512 173.956C127.811 177.824 128.85 181.578 128.795 185.267C128.732 188.788 127.505 192.275 124.884 195.783C122.395 199.116 119.443 201.25 116.011 202.355C112.534 203.474 108.65 203.576 104.259 202.503C99.8641 201.366 95.2372 199.051 90.376 195.419L90.2625 195.335C85.3571 191.67 81.8296 187.891 79.5342 184.037C77.2598 180.133 76.2769 176.403 76.3946 172.794Z" fill="white" stroke="white" stroke-width="7"/>
<path d="M195.933 87.3325L195.935 87.3211L195.937 87.3097C197.015 80.3938 196.192 73.7433 193.446 67.4413C190.682 61.0524 186.1 55.5439 179.868 50.8884L179.754 50.8037C173.493 46.1264 166.911 43.2903 160.03 42.4796C153.179 41.6074 146.551 42.6861 140.224 45.6805C133.831 48.6601 128.239 53.4649 123.414 59.9248L111.11 76.3955L106.99 81.9121L99.151 92.4058C97.0027 95.2819 97.5926 99.3549 100.469 101.503L177.513 159.054C180.389 161.202 184.462 160.612 186.61 157.736L198.569 141.726C200.718 138.85 200.128 134.777 197.252 132.628L178.522 118.638L186.936 107.374C191.754 100.925 194.81 94.2402 195.933 87.3325ZM161.83 96.3978L157.145 102.669L136.604 87.3257L141.289 81.0541C144.225 77.1241 147.201 75.1782 150.142 74.58L150.155 74.5773L150.168 74.5746C152.975 73.9814 156.132 74.6823 159.845 77.4559L159.959 77.5407C163.623 80.2775 165.213 83.1138 165.47 86.0329L165.471 86.0462L165.473 86.0594C165.761 89.0707 164.757 92.4793 161.83 96.3978Z" fill="white" stroke="white" stroke-width="7"/>
<path d="M70.3222 199.158L70.3258 199.165L70.3294 199.173C74.4797 207.787 81.1706 215.454 90.2206 222.214L90.3341 222.298C99.3846 229.059 108.65 233.312 118.12 234.876L118.128 234.878C127.55 236.411 136.6 235.307 145.192 231.551C153.804 227.787 161.319 221.493 167.773 212.853C174.303 204.11 178.242 195.08 179.381 185.78C180.545 176.473 179.019 167.497 174.844 158.932C170.656 150.297 163.951 142.62 154.901 135.86L154.788 135.776C145.741 129.017 136.494 124.777 127.058 123.24C117.662 121.667 108.623 122.752 100.029 126.509C91.4127 130.275 83.8704 136.609 77.3639 145.32C70.9365 153.924 67.0492 162.898 65.883 172.22C64.7195 181.522 66.2135 190.526 70.3222 199.158ZM96.4309 172.794L96.4311 172.785C96.541 169.12 97.7596 165.678 100.216 162.39C102.771 158.969 105.756 156.805 109.174 155.705C112.647 154.586 116.514 154.503 120.875 155.611L120.89 155.615L120.904 155.619C125.275 156.69 129.89 158.966 134.752 162.598L134.866 162.683C139.691 166.288 143.209 170.058 145.548 173.956C147.848 177.824 148.886 181.578 148.831 185.267C148.768 188.788 147.541 192.275 144.921 195.783C142.431 199.116 139.479 201.25 136.047 202.355C132.57 203.474 128.686 203.576 124.295 202.503C119.9 201.366 115.273 199.051 110.412 195.419L110.299 195.335C105.393 191.67 101.866 187.891 99.5705 184.037C97.296 180.133 96.3131 176.403 96.4309 172.794Z" fill="white" stroke="white" stroke-width="7"/>
<path d="M215.97 87.3325L215.971 87.3211L215.973 87.3097C217.051 80.3938 216.228 73.7433 213.482 67.4413C210.718 61.0524 206.136 55.5439 199.904 50.8884L199.79 50.8037C193.529 46.1264 186.947 43.2903 180.066 42.4796C173.215 41.6074 166.588 42.6861 160.261 45.6805C153.867 48.6601 148.275 53.4649 143.45 59.9248L131.147 76.3955L127.026 81.9121L119.187 92.4058C117.039 95.2819 117.629 99.3549 120.505 101.503L197.549 159.054C200.425 161.202 204.498 160.612 206.646 157.736L218.606 141.726C220.754 138.85 220.164 134.777 217.288 132.628L198.559 118.638L206.972 107.374C211.79 100.925 214.846 94.2402 215.97 87.3325ZM181.866 96.3978L177.182 102.669L156.641 87.3257L161.325 81.0541C164.261 77.1241 167.237 75.1782 170.178 74.58L170.191 74.5773L170.204 74.5746C173.011 73.9814 176.169 74.6823 179.882 77.4559L179.995 77.5407C183.659 80.2775 185.249 83.1138 185.506 86.0329L185.508 86.0462L185.509 86.0594C185.797 89.0707 184.793 92.4793 181.866 96.3978Z" fill="white" stroke="white" stroke-width="7"/>
<path d="M90.3585 199.158L90.362 199.165L90.3656 199.173C94.516 207.787 101.207 215.454 110.257 222.214L110.37 222.298C119.421 229.059 128.686 233.312 138.156 234.876L138.165 234.878C147.586 236.411 156.636 235.307 165.229 231.551C173.84 227.787 181.355 221.493 187.809 212.853C194.34 204.11 198.278 195.08 199.417 185.78C200.581 176.473 199.056 167.497 194.88 158.932C190.693 150.297 183.987 142.62 174.938 135.86L174.824 135.776C165.777 129.017 156.53 124.777 147.095 123.24C137.698 121.667 128.659 122.752 120.065 126.509C111.449 130.275 103.907 136.609 97.4001 145.32C90.9727 153.924 87.0854 162.898 85.9193 172.22C84.7558 181.522 86.2498 190.526 90.3585 199.158ZM116.467 172.794L116.467 172.785C116.577 169.12 117.796 165.678 120.252 162.39C122.807 158.969 125.792 156.805 129.21 155.705C132.683 154.586 136.55 154.503 140.911 155.611L140.926 155.615L140.941 155.619C145.311 156.69 149.926 158.966 154.788 162.598L154.902 162.683C159.728 166.288 163.246 170.058 165.584 173.956C167.884 177.824 168.923 181.578 168.868 185.267C168.805 188.788 167.578 192.275 164.957 195.783C162.468 199.116 159.515 201.25 156.083 202.355C152.607 203.474 148.722 203.576 144.331 202.503C139.937 201.366 135.31 199.051 130.448 195.419L130.335 195.335C125.43 191.67 121.902 187.891 119.607 184.037C117.332 180.133 116.349 176.403 116.467 172.794Z" fill="white" stroke="white" stroke-width="7"/>
<path d="M236.006 87.3325L236.008 87.3211L236.009 87.3097C237.088 80.3938 236.264 73.7433 233.518 67.4413C230.755 61.0524 226.172 55.5439 219.94 50.8884L219.827 50.8037C213.565 46.1264 206.983 43.2903 200.103 42.4796C193.251 41.6074 186.624 42.6861 180.297 45.6805C173.903 48.6601 168.312 53.4649 163.486 59.9248L151.183 76.3955L147.062 81.9121L139.224 92.4058C137.075 95.2819 137.665 99.3549 140.541 101.503L217.585 159.054C220.461 161.202 224.534 160.612 226.683 157.736L238.642 141.726C240.79 138.85 240.2 134.777 237.324 132.628L218.595 118.638L227.008 107.374C231.826 100.925 234.882 94.2402 236.006 87.3325ZM201.903 96.3978L197.218 102.669L176.677 87.3257L181.362 81.0541C184.297 77.1241 187.273 75.1782 190.214 74.58L190.227 74.5773L190.24 74.5746C193.047 73.9814 196.205 74.6823 199.918 77.4559L200.031 77.5407C203.695 80.2775 205.285 83.1138 205.543 86.0329L205.544 86.0462L205.545 86.0594C205.833 89.0707 204.83 92.4793 201.903 96.3978Z" fill="white" stroke="white" stroke-width="7"/>
</mask>
<g mask="url(#mask0_3_1084)">
<g style="mix-blend-mode:color-burn">
<g filter="url(#filter0_f_3_1084)">
<path d="M124.896 210.759C131.139 202.402 134.785 193.931 135.835 185.348C136.913 176.727 135.51 168.432 131.624 160.463C127.728 152.427 121.432 145.161 112.734 138.664L112.621 138.58C103.923 132.083 95.1884 128.121 86.4158 126.693C77.6714 125.228 69.3188 126.236 61.3581 129.716C53.3974 133.195 46.3098 139.095 40.0955 147.414C33.9658 155.62 30.3618 164.034 29.2835 172.655C28.2051 181.276 29.5806 189.609 33.41 197.654C37.2676 205.661 43.5452 212.913 52.2427 219.41L52.3561 219.494C61.0536 225.991 69.8076 229.967 78.6181 231.423C87.3907 232.85 95.7574 231.824 103.718 228.344C111.679 224.864 118.738 219.002 124.896 210.759ZM107.652 197.878C104.771 201.735 101.236 204.338 97.0473 205.687C92.8585 207.035 88.299 207.105 83.3689 205.897C78.4293 204.623 73.388 202.065 68.2452 198.223L68.1317 198.139C62.951 194.269 59.0679 190.16 56.4823 185.813C53.925 181.429 52.7176 177.051 52.8602 172.68C52.9932 168.243 54.4862 164.115 57.3392 160.295C60.2769 156.362 63.8401 153.722 68.0289 152.373C72.2177 151.024 76.7631 150.973 81.6649 152.219C86.595 153.427 91.6315 155.952 96.7743 159.794L96.8878 159.879C101.993 163.692 105.857 167.786 108.48 172.162C111.066 176.508 112.325 180.896 112.258 185.323C112.182 189.685 110.646 193.87 107.652 197.878Z" fill="#694EFF"/>
<path d="M145.876 129.671L164.095 105.28C168.643 99.1916 171.426 93.0218 172.442 86.7705C173.422 80.4909 172.674 74.5121 170.199 68.8339C167.714 63.0897 163.56 58.0425 157.737 53.6925L157.623 53.6077C151.762 49.2294 145.744 46.6781 139.568 45.9537C133.384 45.1633 127.419 46.1283 121.676 48.8487C115.894 51.5409 110.729 55.9311 106.182 62.0194L87.9621 86.4102L103.958 98.3587L118.449 78.9595C121.725 74.573 125.378 71.9698 129.408 71.1502C133.465 70.2927 137.631 71.46 141.904 74.6519L142.017 74.7366C146.253 77.9003 148.554 81.5633 148.92 85.7257C149.315 89.8503 147.875 94.1059 144.598 98.4924L130.107 117.892L145.876 129.671ZM161.974 158.045L177.525 137.228L95.6736 76.0866L80.1235 96.9039L161.974 158.045Z" fill="#694EFF"/>
<path d="M144.932 210.759C151.175 202.402 154.821 193.931 155.871 185.348C156.95 176.727 155.546 168.432 151.66 160.463C147.765 152.427 141.468 145.161 132.771 138.664L132.657 138.58C123.96 132.083 115.225 128.121 106.452 126.693C97.7076 125.228 89.3551 126.236 81.3943 129.716C73.4336 133.195 66.3461 139.095 60.1317 147.414C54.0021 155.62 50.3981 164.034 49.3197 172.655C48.2413 181.276 49.6169 189.609 53.4462 197.654C57.3039 205.661 63.5814 212.913 72.2789 219.41L72.3924 219.494C81.0899 225.991 89.8438 229.967 98.6543 231.423C107.427 232.85 115.794 231.824 123.754 228.344C131.715 224.864 138.774 219.002 144.932 210.759ZM127.689 197.878C124.807 201.735 121.272 204.338 117.084 205.687C112.895 207.035 108.335 207.105 103.405 205.897C98.4655 204.623 93.4243 202.065 88.2814 198.223L88.168 198.139C82.9873 194.269 79.1041 190.16 76.5186 185.813C73.9613 181.429 72.7539 177.051 72.8965 172.68C73.0295 168.243 74.5225 164.114 77.3754 160.295C80.3131 156.362 83.8764 153.722 88.0652 152.373C92.254 151.024 96.7993 150.973 101.701 152.219C106.631 153.427 111.668 155.952 116.811 159.794L116.924 159.879C122.029 163.692 125.893 167.786 128.517 172.161C131.102 176.508 132.362 180.896 132.295 185.323C132.218 189.685 130.683 193.87 127.689 197.878Z" fill="url(#paint0_linear_3_1084)"/>
<path d="M165.912 129.671L184.132 105.28C188.679 99.1916 191.462 93.0218 192.479 86.7705C193.458 80.4909 192.71 74.5121 190.235 68.8339C187.751 63.0897 183.597 58.0425 177.773 53.6925L177.66 53.6077C171.798 49.2294 165.78 46.6781 159.605 45.9537C153.42 45.1633 147.456 46.1283 141.712 48.8487C135.93 51.5409 130.766 55.9311 126.218 62.0194L107.998 86.4101L123.994 98.3587L138.485 78.9595C141.762 74.5729 145.415 71.9698 149.444 71.1502C153.502 70.2927 157.667 71.4599 161.94 74.6519L162.053 74.7366C166.289 77.9003 168.59 81.5633 168.957 85.7257C169.352 89.8503 167.911 94.1058 164.634 98.4924L150.143 117.892L165.912 129.671ZM182.011 158.045L197.561 137.228L115.71 76.0866L100.16 96.9039L182.011 158.045Z" fill="url(#paint1_linear_3_1084)"/>
<path d="M164.968 210.759C171.211 202.402 174.857 193.931 175.908 185.348C176.986 176.727 175.582 168.432 171.696 160.463C167.801 152.427 161.504 145.161 152.807 138.664L152.693 138.58C143.996 132.083 135.261 128.121 126.488 126.693C117.744 125.228 109.391 126.236 101.431 129.716C93.4699 133.195 86.3823 139.095 80.168 147.414C74.0383 155.62 70.4343 164.034 69.356 172.655C68.2776 181.276 69.6531 189.609 73.4825 197.654C77.3401 205.661 83.6177 212.913 92.3152 219.41L92.4286 219.494C101.126 225.991 109.88 229.967 118.691 231.423C127.463 232.85 135.83 231.824 143.791 228.344C151.751 224.864 158.811 219.002 164.968 210.759ZM147.725 197.878C144.844 201.735 141.309 204.338 137.12 205.687C132.931 207.035 128.372 207.105 123.441 205.897C118.502 204.623 113.461 202.065 108.318 198.223L108.204 198.139C103.024 194.269 99.1404 190.16 96.5548 185.813C93.9975 181.429 92.7901 177.051 92.9327 172.68C93.0657 168.243 94.5587 164.114 97.4117 160.295C100.349 156.362 103.913 153.722 108.101 152.373C112.29 151.024 116.836 150.973 121.737 152.219C126.667 153.427 131.704 155.952 136.847 159.794L136.96 159.879C142.065 163.692 145.93 167.786 148.553 172.161C151.138 176.508 152.398 180.896 152.331 185.323C152.254 189.685 150.719 193.87 147.725 197.878Z" fill="#694EFF"/>
<path d="M185.949 129.671L204.168 105.28C208.716 99.1916 211.498 93.0218 212.515 86.7705C213.494 80.4909 212.746 74.5121 210.271 68.8339C207.787 63.0897 203.633 58.0425 197.809 53.6925L197.696 53.6077C191.834 49.2294 185.816 46.6781 179.641 45.9537C173.456 45.1633 167.492 46.1283 161.748 48.8487C155.966 51.5409 150.802 55.9311 146.254 62.0194L128.035 86.4101L144.03 98.3587L158.521 78.9595C161.798 74.5729 165.451 71.9698 169.48 71.1502C173.538 70.2927 177.703 71.4599 181.976 74.6519L182.09 74.7366C186.325 77.9003 188.626 81.5633 188.993 85.7257C189.388 89.8503 187.947 94.1058 184.67 98.4924L170.18 117.892L185.949 129.671ZM202.047 158.045L217.597 137.228L135.746 76.0866L120.196 96.9039L202.047 158.045Z" fill="#694EFF"/>
<path d="M185.005 210.759C191.247 202.402 194.894 193.931 195.944 185.348C197.022 176.727 195.618 168.432 191.733 160.463C187.837 152.427 181.541 145.161 172.843 138.664L172.73 138.58C164.032 132.083 155.297 128.121 146.525 126.693C137.78 125.228 129.428 126.236 121.467 129.716C113.506 133.195 106.419 139.095 100.204 147.414C94.0746 155.62 90.4706 164.034 89.3922 172.655C88.3139 181.276 89.6894 189.609 93.5188 197.654C97.3764 205.661 103.654 212.913 112.351 219.41L112.465 219.494C121.162 225.991 129.916 229.967 138.727 231.423C147.499 232.85 155.866 231.824 163.827 228.344C171.788 224.864 178.847 219.002 185.005 210.759ZM167.761 197.878C164.88 201.735 161.345 204.338 157.156 205.687C152.967 207.035 148.408 207.105 143.478 205.897C138.538 204.623 133.497 202.065 128.354 198.223L128.24 198.139C123.06 194.269 119.177 190.16 116.591 185.813C114.034 181.429 112.826 177.051 112.969 172.68C113.102 168.243 114.595 164.114 117.448 160.295C120.386 156.362 123.949 153.722 128.138 152.373C132.326 151.024 136.872 150.973 141.774 152.219C146.704 153.427 151.74 155.952 156.883 159.794L156.997 159.879C162.102 163.692 165.966 167.786 168.589 172.161C171.175 176.508 172.434 180.896 172.367 185.323C172.291 189.685 170.755 193.87 167.761 197.878Z" fill="url(#paint2_linear_3_1084)"/>
<path d="M205.985 129.671L224.204 105.28C228.752 99.1916 231.534 93.0218 232.551 86.7705C233.53 80.4909 232.782 74.5121 230.307 68.8339C227.823 63.0897 223.669 58.0425 217.846 53.6925L217.732 53.6077C211.871 49.2294 205.852 46.6781 199.677 45.9537C193.492 45.1633 187.528 46.1283 181.784 48.8487C176.003 51.5409 170.838 55.9311 166.29 62.0194L148.071 86.4101L164.067 98.3587L178.557 78.9595C181.834 74.5729 185.487 71.9698 189.516 71.1502C193.574 70.2927 197.739 71.4599 202.013 74.6519L202.126 74.7366C206.361 77.9003 208.662 81.5633 209.029 85.7257C209.424 89.8503 207.983 94.1058 204.707 98.4924L190.216 117.892L205.985 129.671ZM222.083 158.045L237.633 137.228L155.782 76.0866L140.232 96.9039L222.083 158.045Z" fill="url(#paint3_linear_3_1084)"/>
</g>
</g>
<path d="M124.896 210.759C131.139 202.402 134.785 193.931 135.835 185.348C136.913 176.727 135.51 168.432 131.624 160.463C127.728 152.427 121.432 145.161 112.734 138.664L112.621 138.58C103.923 132.083 95.1884 128.121 86.4158 126.693C77.6714 125.228 69.3188 126.236 61.3581 129.716C53.3974 133.196 46.3098 139.095 40.0955 147.414C33.9658 155.62 30.3618 164.034 29.2835 172.655C28.2051 181.276 29.5806 189.609 33.41 197.654C37.2676 205.661 43.5452 212.913 52.2427 219.41L52.3561 219.494C61.0536 225.991 69.8076 229.967 78.6181 231.423C87.3907 232.85 95.7574 231.824 103.718 228.344C111.679 224.864 118.738 219.002 124.896 210.759ZM107.652 197.878C104.771 201.735 101.236 204.338 97.0473 205.687C92.8585 207.035 88.299 207.105 83.3689 205.897C78.4293 204.623 73.388 202.065 68.2452 198.223L68.1317 198.139C62.951 194.269 59.0679 190.16 56.4823 185.813C53.925 181.429 52.7176 177.051 52.8602 172.68C52.9932 168.243 54.4862 164.115 57.3392 160.295C60.2769 156.362 63.8401 153.722 68.0289 152.373C72.2177 151.025 76.7631 150.973 81.6649 152.219C86.595 153.427 91.6315 155.952 96.7743 159.794L96.8878 159.879C101.993 163.692 105.857 167.786 108.48 172.162C111.066 176.508 112.325 180.896 112.258 185.323C112.182 189.685 110.646 193.87 107.652 197.878Z" fill="#694EFF"/>
<path d="M143.473 127.875C144.8 128.867 146.68 128.595 147.671 127.267L164.095 105.28C168.643 99.1916 171.426 93.0219 172.442 86.7705C173.422 80.491 172.674 74.5121 170.199 68.8339C167.714 63.0897 163.56 58.0426 157.737 53.6925L157.623 53.6078C151.762 49.2294 145.744 46.6781 139.568 45.9537C133.384 45.1633 127.419 46.1283 121.676 48.8487C115.894 51.5409 110.729 55.9311 106.182 62.0194L89.7575 84.0067C88.7659 85.3341 89.0382 87.214 90.3656 88.2055L101.554 96.5634C102.882 97.5549 104.762 97.2826 105.753 95.9552L118.449 78.9595C121.725 74.573 125.378 71.9699 129.408 71.1502C133.465 70.2927 137.631 71.46 141.904 74.6519L142.017 74.7366C146.253 77.9003 148.554 81.5634 148.92 85.7257C149.315 89.8503 147.875 94.1059 144.598 98.4924L131.902 115.488C130.911 116.816 131.183 118.695 132.511 119.687L143.473 127.875ZM159.571 156.249C160.898 157.241 162.778 156.969 163.77 155.641L175.729 139.631C176.721 138.304 176.448 136.424 175.121 135.432L98.0771 77.882C96.7497 76.8904 94.8698 77.1627 93.8782 78.4901L81.9189 94.5004C80.9273 95.8278 81.1996 97.7077 82.527 98.6992L159.571 156.249Z" fill="#694EFF"/>
<path d="M144.932 210.759C151.175 202.402 154.821 193.931 155.871 185.348C156.95 176.727 155.546 168.432 151.66 160.463C147.765 152.427 141.468 145.161 132.771 138.664L132.657 138.58C123.96 132.083 115.225 128.121 106.452 126.693C97.7076 125.228 89.3551 126.236 81.3943 129.716C73.4336 133.195 66.3461 139.095 60.1317 147.414C54.0021 155.62 50.3981 164.034 49.3197 172.655C48.2413 181.276 49.6169 189.609 53.4462 197.654C57.3039 205.661 63.5814 212.913 72.2789 219.41L72.3924 219.494C81.0899 225.991 89.8438 229.967 98.6543 231.423C107.427 232.85 115.794 231.824 123.754 228.344C131.715 224.864 138.774 219.002 144.932 210.759ZM127.689 197.878C124.807 201.735 121.272 204.338 117.084 205.687C112.895 207.035 108.335 207.105 103.405 205.897C98.4655 204.623 93.4243 202.065 88.2814 198.223L88.168 198.139C82.9873 194.269 79.1041 190.16 76.5186 185.813C73.9613 181.429 72.7539 177.051 72.8965 172.68C73.0295 168.243 74.5225 164.115 77.3754 160.295C80.3131 156.362 83.8764 153.722 88.0652 152.373C92.254 151.024 96.7993 150.973 101.701 152.219C106.631 153.427 111.668 155.952 116.811 159.794L116.924 159.879C122.029 163.692 125.893 167.786 128.517 172.162C131.102 176.508 132.362 180.896 132.295 185.323C132.218 189.685 130.683 193.87 127.689 197.878Z" fill="url(#paint4_linear_3_1084)"/>
<path d="M163.509 127.875C164.836 128.867 166.716 128.595 167.708 127.267L184.132 105.28C188.679 99.1916 191.462 93.0218 192.479 86.7705C193.458 80.4909 192.71 74.5121 190.235 68.8339C187.751 63.0897 183.597 58.0425 177.773 53.6925L177.66 53.6077C171.798 49.2294 165.78 46.6781 159.605 45.9537C153.42 45.1633 147.456 46.1283 141.712 48.8487C135.93 51.5409 130.766 55.9311 126.218 62.0194L109.794 84.0067C108.802 85.3341 109.074 87.214 110.402 88.2055L121.591 96.5634C122.918 97.5549 124.798 97.2826 125.79 95.9552L138.485 78.9595C141.762 74.573 145.415 71.9698 149.444 71.1502C153.502 70.2927 157.667 71.46 161.94 74.6519L162.053 74.7366C166.289 77.9003 168.59 81.5633 168.957 85.7257C169.352 89.8503 167.911 94.1059 164.634 98.4924L151.939 115.488C150.947 116.816 151.219 118.695 152.547 119.687L163.509 127.875ZM179.607 156.249C180.935 157.241 182.815 156.969 183.806 155.641L195.765 139.631C196.757 138.304 196.485 136.424 195.157 135.432L118.113 77.882C116.786 76.8904 114.906 77.1627 113.914 78.4901L101.955 94.5004C100.964 95.8278 101.236 97.7077 102.563 98.6992L179.607 156.249Z" fill="url(#paint5_linear_3_1084)"/>
<path d="M164.968 210.759C171.211 202.402 174.857 193.931 175.908 185.348C176.986 176.727 175.582 168.432 171.696 160.463C167.801 152.427 161.504 145.161 152.807 138.664L152.693 138.58C143.996 132.083 135.261 128.121 126.488 126.693C117.744 125.228 109.391 126.236 101.431 129.716C93.4699 133.195 86.3823 139.095 80.168 147.414C74.0383 155.62 70.4343 164.034 69.356 172.655C68.2776 181.276 69.6531 189.609 73.4825 197.654C77.3401 205.661 83.6177 212.913 92.3152 219.41L92.4286 219.494C101.126 225.991 109.88 229.967 118.691 231.423C127.463 232.85 135.83 231.824 143.791 228.344C151.751 224.864 158.811 219.002 164.968 210.759ZM147.725 197.878C144.844 201.735 141.309 204.338 137.12 205.687C132.931 207.035 128.372 207.105 123.441 205.897C118.502 204.623 113.461 202.065 108.318 198.223L108.204 198.139C103.024 194.269 99.1404 190.16 96.5548 185.813C93.9975 181.429 92.7901 177.051 92.9327 172.68C93.0657 168.243 94.5587 164.115 97.4117 160.295C100.349 156.362 103.913 153.722 108.101 152.373C112.29 151.024 116.836 150.973 121.737 152.219C126.667 153.427 131.704 155.952 136.847 159.794L136.96 159.879C142.065 163.692 145.93 167.786 148.553 172.162C151.138 176.508 152.398 180.896 152.331 185.323C152.254 189.685 150.719 193.87 147.725 197.878Z" fill="#694EFF"/>
<path d="M183.545 127.875C184.872 128.867 186.752 128.595 187.744 127.267L204.168 105.28C208.716 99.1916 211.498 93.0218 212.515 86.7705C213.494 80.4909 212.746 74.5121 210.271 68.8339C207.787 63.0897 203.633 58.0425 197.809 53.6925L197.696 53.6077C191.834 49.2294 185.816 46.6781 179.641 45.9537C173.456 45.1633 167.492 46.1283 161.748 48.8487C155.966 51.5409 150.802 55.9311 146.254 62.0194L129.83 84.0067C128.838 85.3341 129.111 87.214 130.438 88.2055L141.627 96.5634C142.954 97.5549 144.834 97.2826 145.826 95.9552L158.521 78.9595C161.798 74.573 165.451 71.9698 169.48 71.1502C173.538 70.2927 177.703 71.46 181.976 74.6519L182.09 74.7366C186.325 77.9003 188.626 81.5633 188.993 85.7257C189.388 89.8503 187.947 94.1059 184.67 98.4924L171.975 115.488C170.983 116.816 171.256 118.695 172.583 119.687L183.545 127.875ZM199.643 156.249C200.971 157.241 202.851 156.969 203.842 155.641L215.802 139.631C216.793 138.304 216.521 136.424 215.194 135.432L138.15 77.882C136.822 76.8904 134.942 77.1627 133.951 78.4901L121.991 94.5004C121 95.8278 121.272 97.7077 122.599 98.6992L199.643 156.249Z" fill="#694EFF"/>
<path d="M185.005 210.759C191.247 202.402 194.894 193.931 195.944 185.348C197.022 176.727 195.618 168.432 191.733 160.463C187.837 152.427 181.541 145.161 172.843 138.664L172.73 138.58C164.032 132.083 155.297 128.121 146.525 126.693C137.78 125.228 129.428 126.236 121.467 129.716C113.506 133.195 106.419 139.095 100.204 147.414C94.0746 155.62 90.4706 164.034 89.3922 172.655C88.3139 181.276 89.6894 189.609 93.5188 197.654C97.3764 205.661 103.654 212.913 112.351 219.41L112.465 219.494C121.162 225.991 129.916 229.967 138.727 231.423C147.499 232.85 155.866 231.824 163.827 228.344C171.788 224.864 178.847 219.002 185.005 210.759ZM167.761 197.878C164.88 201.735 161.345 204.338 157.156 205.687C152.967 207.035 148.408 207.105 143.478 205.897C138.538 204.623 133.497 202.065 128.354 198.223L128.24 198.139C123.06 194.269 119.177 190.16 116.591 185.813C114.034 181.429 112.826 177.051 112.969 172.68C113.102 168.243 114.595 164.115 117.448 160.295C120.386 156.362 123.949 153.722 128.138 152.373C132.326 151.024 136.872 150.973 141.774 152.219C146.704 153.427 151.74 155.952 156.883 159.794L156.997 159.879C162.102 163.692 165.966 167.786 168.589 172.162C171.175 176.508 172.434 180.896 172.367 185.323C172.291 189.685 170.755 193.87 167.761 197.878Z" fill="url(#paint6_linear_3_1084)"/>
<path d="M203.581 127.875C204.909 128.867 206.789 128.595 207.78 127.267L224.204 105.28C228.752 99.1916 231.534 93.0218 232.551 86.7705C233.53 80.4909 232.782 74.5121 230.307 68.8339C227.823 63.0897 223.669 58.0425 217.846 53.6925L217.732 53.6077C211.871 49.2294 205.852 46.6781 199.677 45.9537C193.492 45.1633 187.528 46.1283 181.784 48.8487C176.003 51.5409 170.838 55.9311 166.29 62.0194L149.866 84.0067C148.875 85.3341 149.147 87.214 150.474 88.2055L161.663 96.5634C162.991 97.5549 164.87 97.2826 165.862 95.9552L178.557 78.9595C181.834 74.573 185.487 71.9698 189.516 71.1502C193.574 70.2927 197.739 71.46 202.013 74.6519L202.126 74.7366C206.361 77.9003 208.662 81.5633 209.029 85.7257C209.424 89.8503 207.983 94.1059 204.707 98.4924L192.011 115.488C191.02 116.816 191.292 118.695 192.619 119.687L203.581 127.875ZM219.68 156.249C221.007 157.241 222.887 156.969 223.879 155.641L235.838 139.631C236.829 138.304 236.557 136.424 235.23 135.432L158.186 77.882C156.858 76.8904 154.979 77.1627 153.987 78.4901L142.028 94.5004C141.036 95.8278 141.308 97.7077 142.636 98.6992L219.68 156.249Z" fill="url(#paint7_linear_3_1084)"/>
<g style="mix-blend-mode:hue">
<path fill-rule="evenodd" clip-rule="evenodd" d="M-15.4512 105.814C-6.45279 96.8687 9.01718 105.419 21.6804 106.218C31.0676 106.81 40.0019 107.02 48.963 109.878C59.7052 113.304 73.8858 114.135 78.6066 124.374C83.3467 134.656 71.2612 145.195 70.452 156.488C69.5126 169.596 81.1101 184.068 73.5582 194.824C66.1908 205.317 49.9746 203.953 37.1537 203.912C25.9759 203.876 15.3341 200.428 5.79258 194.605C-3.15222 189.147 -11.0661 181.783 -15.0147 172.077C-18.7693 162.847 -15.1687 152.88 -15.2343 142.916C-15.3179 130.239 -24.442 114.753 -15.4512 105.814Z" fill="#C4C4C4"/>
<path fill-rule="evenodd" clip-rule="evenodd" d="M205.421 68.2032C205.823 57.7222 197.219 45.0516 205.238 38.2957C213.267 31.5318 224.374 41.6877 234.707 43.5322C246.36 45.6121 261.65 39.448 267.93 49.4856C274.32 59.7012 264.843 72.0662 259.229 82.7289C253.989 92.681 248.534 103.139 237.845 106.626C226.028 110.482 210.85 110.631 202.832 101.129C195.364 92.2787 204.978 79.7776 205.421 68.2032Z" fill="#FF6CFF"/>
<path fill-rule="evenodd" clip-rule="evenodd" d="M87.6916 227.525C80.4218 235.086 78.4216 250.271 67.9394 249.983C57.445 249.695 55.904 234.724 49.4132 226.475C42.0939 217.173 26.5754 211.608 28.5607 199.936C30.5813 188.056 45.8825 185.125 57.166 180.895C67.6975 176.947 78.7256 172.764 89.0282 177.268C100.417 182.246 111.852 192.229 111.521 204.657C111.213 216.233 95.7196 219.176 87.6916 227.525Z" fill="#FF6CFF"/>
<path fill-rule="evenodd" clip-rule="evenodd" d="M163.925 163.055C176.191 159.807 185.313 174.947 195.88 181.971C203.714 187.177 211.346 191.826 217.677 198.782C225.267 207.12 237.133 214.93 236.101 226.158C235.066 237.432 219.329 240.517 212.983 249.892C205.615 260.774 208.423 279.106 196.505 284.645C184.878 290.048 171.516 280.759 160.433 274.313C150.771 268.693 143.279 260.386 137.927 250.572C132.91 241.373 129.738 231.039 131.172 220.659C132.535 210.788 140.637 203.957 145.562 195.295C151.828 184.274 151.67 166.301 163.925 163.055Z" fill="#C4C4C4"/>
<path fill-rule="evenodd" clip-rule="evenodd" d="M78.5994 103.082C69.7232 97.4942 54.4482 98.6102 52.6072 88.287C50.7641 77.9517 65.1127 73.411 71.8767 65.3844C79.5041 56.333 81.811 40.0091 93.6437 39.5897C105.686 39.1629 111.656 53.5534 118.083 63.7466C124.082 73.2605 130.411 83.2132 128.087 94.2143C125.517 106.375 118.057 119.595 105.82 121.788C94.4206 123.83 88.4015 109.253 78.5994 103.082Z" fill="#FF6CFF"/>
<path fill-rule="evenodd" clip-rule="evenodd" d="M86.8517 -2.60983C93.7387 -9.45656 105.579 -2.91261 115.271 -2.30114C122.456 -1.84787 129.294 -1.68701 136.152 0.500519C144.374 3.12283 155.227 3.7584 158.84 11.5953C162.468 19.4642 153.218 27.5311 152.599 36.1739C151.88 46.2067 160.756 57.2828 154.976 65.5148C149.338 73.5457 136.926 72.5022 127.114 72.4706C118.559 72.443 110.414 69.8038 103.111 65.3474C96.2649 61.1697 90.2079 55.534 87.1858 48.1051C84.3121 41.041 87.0679 33.4129 87.0176 25.7868C86.9537 16.0838 79.9704 4.23117 86.8517 -2.60983Z" fill="#C4C4C4"/>
</g>
</g>
</g>
<defs>
<filter id="filter0_f_3_1084" x="11.9281" y="28.6868" width="242.705" height="220.359" filterUnits="userSpaceOnUse" color-interpolation-filters="sRGB">
<feFlood flood-opacity="0" result="BackgroundImageFix"/>
<feBlend mode="normal" in="SourceGraphic" in2="BackgroundImageFix" result="shape"/>
<feGaussianBlur stdDeviation="8.5" result="effect1_foregroundBlur_3_1084"/>
</filter>
<linearGradient id="paint0_linear_3_1084" x1="190.487" y1="239.018" x2="29.362" y2="134.191" gradientUnits="userSpaceOnUse">
<stop offset="0.213542" stop-color="#F3F3F3"/>
<stop offset="1" stop-color="#F3F3F3" stop-opacity="0"/>
</linearGradient>
<linearGradient id="paint1_linear_3_1084" x1="249.774" y1="153.469" x2="93.0977" y2="54.4083" gradientUnits="userSpaceOnUse">
<stop offset="0.213542" stop-color="#F3F3F3"/>
<stop offset="1" stop-color="#F3F3F3" stop-opacity="0"/>
</linearGradient>
<linearGradient id="paint2_linear_3_1084" x1="100.225" y1="147.386" x2="185.026" y2="210.73" gradientUnits="userSpaceOnUse">
<stop stop-color="white"/>
<stop offset="0.484375" stop-color="white" stop-opacity="0.901042"/>
<stop offset="1" stop-color="white" stop-opacity="0"/>
</linearGradient>
<linearGradient id="paint3_linear_3_1084" x1="164.49" y1="64.4301" x2="246.34" y2="125.571" gradientUnits="userSpaceOnUse">
<stop stop-color="white"/>
<stop offset="0.484375" stop-color="white" stop-opacity="0.901042"/>
<stop offset="1" stop-color="white" stop-opacity="0"/>
</linearGradient>
<linearGradient id="paint4_linear_3_1084" x1="190.487" y1="239.018" x2="29.362" y2="134.191" gradientUnits="userSpaceOnUse">
<stop offset="0.213542" stop-color="#F3F3F3"/>
<stop offset="1" stop-color="#F3F3F3" stop-opacity="0"/>
</linearGradient>
<linearGradient id="paint5_linear_3_1084" x1="249.774" y1="153.469" x2="93.0977" y2="54.4083" gradientUnits="userSpaceOnUse">
<stop offset="0.213542" stop-color="#F3F3F3"/>
<stop offset="1" stop-color="#F3F3F3" stop-opacity="0"/>
</linearGradient>
<linearGradient id="paint6_linear_3_1084" x1="91.4474" y1="137.232" x2="186.431" y2="208.255" gradientUnits="userSpaceOnUse">
<stop stop-color="white"/>
<stop offset="0.524347" stop-color="white" stop-opacity="0.901042"/>
<stop offset="1" stop-color="white" stop-opacity="0"/>
</linearGradient>
<linearGradient id="paint7_linear_3_1084" x1="155.738" y1="55.0028" x2="247.411" y2="123.564" gradientUnits="userSpaceOnUse">
<stop stop-color="white"/>
<stop offset="0.524347" stop-color="white" stop-opacity="0.901042"/>
<stop offset="1" stop-color="white" stop-opacity="0"/>
</linearGradient>
<clipPath id="clip0_3_1084">
<rect width="281" height="281" fill="white"/>
</clipPath>
</defs>
</svg>
