<svg width="281" height="281" viewBox="0 0 281 281" fill="none" xmlns="http://www.w3.org/2000/svg">
<g clip-path="url(#clip0_12_2554)">
<mask id="mask0_12_2554" style="mask-type:alpha" maskUnits="userSpaceOnUse" x="-59" y="-59" width="400" height="400">
<path d="M124.896 210.759C131.139 202.402 134.785 193.931 135.835 185.348C136.913 176.727 135.51 168.432 131.624 160.463C127.728 152.427 121.432 145.161 112.734 138.664L112.621 138.58C103.923 132.083 95.1884 128.121 86.4158 126.693C77.6714 125.228 69.3188 126.236 61.3581 129.716C53.3974 133.196 46.3098 139.095 40.0954 147.414C33.9658 155.62 30.3618 164.034 29.2835 172.655C28.2051 181.276 29.5806 189.609 33.41 197.654C37.2676 205.661 43.5452 212.913 52.2427 219.41L52.3561 219.494C61.0536 225.991 69.8076 229.967 78.618 231.423C87.3907 232.85 95.7574 231.824 103.718 228.344C111.679 224.864 118.738 219.002 124.896 210.759ZM107.652 197.878C104.771 201.735 101.236 204.338 97.0472 205.687C92.8584 207.035 88.299 207.105 83.3689 205.897C78.4293 204.623 73.388 202.065 68.2451 198.223L68.1317 198.139C62.951 194.269 59.0679 190.16 56.4823 185.813C53.925 181.429 52.7176 177.051 52.8602 172.68C52.9932 168.243 54.4862 164.115 57.3392 160.295C60.2769 156.362 63.8401 153.722 68.0289 152.373C72.2177 151.025 76.763 150.973 81.6649 152.219C86.595 153.427 91.6314 155.952 96.7743 159.794L96.8878 159.879C101.993 163.692 105.857 167.786 108.48 172.162C111.066 176.508 112.325 180.896 112.258 185.323C112.182 189.685 110.646 193.87 107.652 197.878Z" fill="white"/>
<path d="M143.473 127.875C144.8 128.867 146.68 128.595 147.671 127.267L164.095 105.28C168.643 99.1916 171.426 93.0219 172.442 86.7705C173.422 80.491 172.674 74.5121 170.199 68.8339C167.714 63.0897 163.56 58.0426 157.737 53.6925L157.623 53.6078C151.762 49.2294 145.744 46.6781 139.568 45.9537C133.384 45.1633 127.419 46.1283 121.676 48.8487C115.894 51.5409 110.729 55.9311 106.182 62.0194L89.7575 84.0067C88.7659 85.3341 89.0382 87.214 90.3656 88.2055L101.554 96.5634C102.882 97.5549 104.762 97.2826 105.753 95.9552L118.449 78.9595C121.725 74.573 125.378 71.9699 129.408 71.1502C133.465 70.2927 137.631 71.46 141.904 74.6519L142.017 74.7366C146.253 77.9003 148.554 81.5634 148.92 85.7257C149.315 89.8503 147.875 94.1059 144.598 98.4924L131.902 115.488C130.911 116.816 131.183 118.695 132.511 119.687L143.473 127.875ZM159.571 156.249C160.898 157.241 162.778 156.969 163.77 155.641L175.729 139.631C176.721 138.304 176.448 136.424 175.121 135.432L98.0771 77.882C96.7497 76.8904 94.8698 77.1627 93.8782 78.4901L81.9189 94.5004C80.9273 95.8278 81.1996 97.7077 82.527 98.6992L159.571 156.249Z" fill="white"/>
<path d="M144.932 210.759C151.175 202.402 154.821 193.931 155.871 185.348C156.95 176.727 155.546 168.432 151.66 160.463C147.765 152.427 141.468 145.161 132.771 138.664L132.657 138.58C123.96 132.083 115.225 128.121 106.452 126.693C97.7076 125.228 89.3551 126.236 81.3943 129.716C73.4336 133.195 66.3461 139.095 60.1317 147.414C54.0021 155.62 50.3981 164.034 49.3197 172.655C48.2413 181.276 49.6169 189.609 53.4462 197.654C57.3039 205.661 63.5814 212.913 72.2789 219.41L72.3924 219.494C81.0899 225.991 89.8438 229.967 98.6543 231.423C107.427 232.85 115.794 231.824 123.754 228.344C131.715 224.864 138.774 219.002 144.932 210.759ZM127.689 197.878C124.807 201.735 121.272 204.338 117.084 205.687C112.895 207.035 108.335 207.105 103.405 205.897C98.4655 204.623 93.4243 202.065 88.2814 198.223L88.168 198.139C82.9873 194.269 79.1041 190.16 76.5186 185.813C73.9613 181.429 72.7539 177.051 72.8965 172.68C73.0295 168.243 74.5225 164.115 77.3754 160.295C80.3131 156.362 83.8764 153.722 88.0652 152.373C92.254 151.024 96.7993 150.973 101.701 152.219C106.631 153.427 111.668 155.952 116.811 159.794L116.924 159.879C122.029 163.692 125.893 167.786 128.517 172.162C131.102 176.508 132.362 180.896 132.295 185.323C132.218 189.685 130.683 193.87 127.689 197.878Z" fill="white"/>
<path d="M163.509 127.875C164.836 128.867 166.716 128.595 167.708 127.267L184.132 105.28C188.68 99.1916 191.462 93.0218 192.479 86.7705C193.458 80.4909 192.71 74.5121 190.235 68.8339C187.751 63.0897 183.597 58.0425 177.773 53.6925L177.66 53.6077C171.798 49.2294 165.78 46.6781 159.605 45.9537C153.42 45.1633 147.456 46.1283 141.712 48.8487C135.93 51.5409 130.766 55.9311 126.218 62.0194L109.794 84.0067C108.802 85.3341 109.074 87.214 110.402 88.2055L121.591 96.5634C122.918 97.5549 124.798 97.2826 125.79 95.9552L138.485 78.9595C141.762 74.573 145.415 71.9698 149.444 71.1502C153.502 70.2927 157.667 71.46 161.94 74.6519L162.054 74.7366C166.289 77.9003 168.59 81.5633 168.957 85.7257C169.352 89.8503 167.911 94.1059 164.634 98.4924L151.939 115.488C150.947 116.816 151.219 118.695 152.547 119.687L163.509 127.875ZM179.607 156.249C180.935 157.241 182.815 156.969 183.806 155.641L195.765 139.631C196.757 138.304 196.485 136.424 195.157 135.432L118.113 77.882C116.786 76.8904 114.906 77.1627 113.914 78.4901L101.955 94.5004C100.964 95.8278 101.236 97.7077 102.563 98.6992L179.607 156.249Z" fill="white"/>
<path d="M164.968 210.759C171.211 202.402 174.857 193.931 175.908 185.348C176.986 176.727 175.582 168.432 171.696 160.463C167.801 152.427 161.504 145.161 152.807 138.664L152.693 138.58C143.996 132.083 135.261 128.121 126.488 126.693C117.744 125.228 109.391 126.236 101.431 129.716C93.4699 133.195 86.3823 139.095 80.168 147.414C74.0383 155.62 70.4343 164.034 69.356 172.655C68.2776 181.276 69.6531 189.609 73.4825 197.654C77.3401 205.661 83.6177 212.913 92.3152 219.41L92.4286 219.494C101.126 225.991 109.88 229.967 118.691 231.423C127.463 232.85 135.83 231.824 143.791 228.344C151.751 224.864 158.811 219.002 164.968 210.759ZM147.725 197.878C144.844 201.735 141.309 204.338 137.12 205.687C132.931 207.035 128.372 207.105 123.441 205.897C118.502 204.623 113.461 202.065 108.318 198.223L108.204 198.139C103.024 194.269 99.1404 190.16 96.5548 185.813C93.9975 181.429 92.7901 177.051 92.9327 172.68C93.0657 168.243 94.5587 164.115 97.4117 160.295C100.349 156.362 103.913 153.722 108.101 152.373C112.29 151.024 116.836 150.973 121.737 152.219C126.667 153.427 131.704 155.952 136.847 159.794L136.96 159.879C142.065 163.692 145.93 167.786 148.553 172.162C151.138 176.508 152.398 180.896 152.331 185.323C152.254 189.685 150.719 193.87 147.725 197.878Z" fill="white"/>
<path d="M183.545 127.875C184.873 128.867 186.752 128.595 187.744 127.267L204.168 105.28C208.716 99.1916 211.498 93.0218 212.515 86.7705C213.494 80.4909 212.746 74.5121 210.271 68.8339C207.787 63.0897 203.633 58.0425 197.809 53.6925L197.696 53.6077C191.835 49.2294 185.816 46.6781 179.641 45.9537C173.456 45.1633 167.492 46.1283 161.748 48.8487C155.967 51.5409 150.802 55.9311 146.254 62.0194L129.83 84.0067C128.838 85.3341 129.111 87.214 130.438 88.2055L141.627 96.5634C142.954 97.5549 144.834 97.2826 145.826 95.9552L158.521 78.9595C161.798 74.573 165.451 71.9698 169.48 71.1502C173.538 70.2927 177.703 71.46 181.976 74.6519L182.09 74.7366C186.325 77.9003 188.626 81.5633 188.993 85.7257C189.388 89.8503 187.947 94.1059 184.67 98.4924L171.975 115.488C170.983 116.816 171.256 118.695 172.583 119.687L183.545 127.875ZM199.644 156.249C200.971 157.241 202.851 156.969 203.842 155.641L215.802 139.631C216.793 138.304 216.521 136.424 215.194 135.432L138.15 77.882C136.822 76.8904 134.942 77.1627 133.951 78.4901L121.991 94.5004C121 95.8278 121.272 97.7077 122.6 98.6992L199.644 156.249Z" fill="white"/>
<path d="M185.005 210.759C191.247 202.402 194.894 193.931 195.944 185.348C197.022 176.727 195.618 168.432 191.733 160.463C187.837 152.427 181.541 145.161 172.843 138.664L172.73 138.58C164.032 132.083 155.297 128.121 146.525 126.693C137.78 125.228 129.428 126.236 121.467 129.716C113.506 133.195 106.419 139.095 100.204 147.414C94.0746 155.62 90.4706 164.034 89.3922 172.655C88.3139 181.276 89.6894 189.609 93.5188 197.654C97.3764 205.661 103.654 212.913 112.351 219.41L112.465 219.494C121.162 225.991 129.916 229.967 138.727 231.423C147.499 232.85 155.866 231.824 163.827 228.344C171.788 224.864 178.847 219.002 185.005 210.759ZM167.761 197.878C164.88 201.735 161.345 204.338 157.156 205.687C152.967 207.035 148.408 207.105 143.478 205.897C138.538 204.623 133.497 202.065 128.354 198.223L128.24 198.139C123.06 194.269 119.177 190.16 116.591 185.813C114.034 181.429 112.826 177.051 112.969 172.68C113.102 168.243 114.595 164.115 117.448 160.295C120.386 156.362 123.949 153.722 128.138 152.373C132.326 151.024 136.872 150.973 141.774 152.219C146.704 153.427 151.74 155.952 156.883 159.794L156.997 159.879C162.102 163.692 165.966 167.786 168.589 172.162C171.175 176.508 172.434 180.896 172.367 185.323C172.291 189.685 170.755 193.87 167.761 197.878Z" fill="white"/>
<path d="M203.581 127.875C204.909 128.867 206.789 128.595 207.78 127.267L224.204 105.28C228.752 99.1916 231.534 93.0218 232.551 86.7705C233.53 80.4909 232.782 74.5121 230.307 68.8339C227.823 63.0897 223.669 58.0425 217.845 53.6925L217.732 53.6077C211.871 49.2294 205.852 46.6781 199.677 45.9537C193.492 45.1633 187.528 46.1283 181.784 48.8487C176.003 51.5409 170.838 55.9311 166.29 62.0194L149.866 84.0067C148.875 85.3341 149.147 87.214 150.474 88.2055L161.663 96.5634C162.991 97.5549 164.87 97.2826 165.862 95.9552L178.557 78.9595C181.834 74.573 185.487 71.9698 189.516 71.1502C193.574 70.2927 197.739 71.46 202.012 74.6519L202.126 74.7366C206.361 77.9003 208.662 81.5633 209.029 85.7257C209.424 89.8503 207.983 94.1059 204.707 98.4924L192.011 115.488C191.02 116.816 191.292 118.695 192.619 119.687L203.581 127.875ZM219.68 156.249C221.007 157.241 222.887 156.969 223.878 155.641L235.838 139.631C236.829 138.304 236.557 136.424 235.23 135.432L158.186 77.882C156.858 76.8904 154.978 77.1627 153.987 78.4901L142.028 94.5004C141.036 95.8278 141.308 97.7077 142.636 98.6992L219.68 156.249Z" fill="white"/>
</mask>
<g mask="url(#mask0_12_2554)">
<rect x="5" y="8" width="271" height="272" fill="#1E1E1E"/>
<g filter="url(#filter0_f_12_2554)">
<path d="M124.396 210.259C130.639 201.902 134.285 193.431 135.335 184.848C136.413 176.227 135.01 167.932 131.124 159.963C127.228 151.927 120.932 144.661 112.234 138.164L112.121 138.08C103.423 131.583 94.6884 127.621 85.9158 126.193C77.1714 124.728 68.8188 125.736 60.8581 129.216C52.8974 132.695 45.8098 138.595 39.5954 146.914C33.4658 155.12 29.8618 163.534 28.7835 172.155C27.7051 180.776 29.0806 189.109 32.91 197.154C36.7676 205.161 43.0452 212.413 51.7427 218.91L51.8561 218.994C60.5536 225.491 69.3076 229.467 78.118 230.923C86.8907 232.35 95.2574 231.324 103.218 227.844C111.179 224.364 118.238 218.502 124.396 210.259ZM107.152 197.378C104.271 201.235 100.736 203.838 96.5472 205.187C92.3584 206.535 87.799 206.605 82.8689 205.397C77.9293 204.123 72.888 201.565 67.7451 197.723L67.6317 197.639C62.451 193.769 58.5679 189.66 55.9823 185.313C53.425 180.929 52.2176 176.551 52.3602 172.18C52.4932 167.743 53.9862 163.615 56.8392 159.795C59.7769 155.862 63.3401 153.222 67.5289 151.873C71.7177 150.524 76.263 150.473 81.1649 151.719C86.095 152.927 91.1314 155.452 96.2743 159.294L96.3878 159.379C101.493 163.192 105.357 167.286 107.98 171.662C110.566 176.008 111.825 180.396 111.758 184.823C111.682 189.185 110.146 193.37 107.152 197.378Z" fill="#694EFF"/>
<path d="M145.376 129.171L163.595 104.78C168.143 98.6916 170.926 92.5218 171.942 86.2705C172.922 79.9909 172.174 74.0121 169.699 68.3339C167.214 62.5897 163.06 57.5425 157.237 53.1925L157.123 53.1077C151.262 48.7294 145.244 46.1781 139.068 45.4537C132.884 44.6633 126.919 45.6283 121.176 48.3487C115.394 51.0409 110.229 55.4311 105.682 61.5194L87.4621 85.9102L103.458 97.8587L117.949 78.4595C121.225 74.073 124.878 71.4698 128.908 70.6502C132.965 69.7927 137.131 70.96 141.404 74.1519L141.517 74.2366C145.753 77.4003 148.054 81.0633 148.42 85.2257C148.815 89.3503 147.375 93.6059 144.098 97.9924L129.607 117.392L145.376 129.171ZM161.474 157.545L177.025 136.728L95.1736 75.5866L79.6235 96.4039L161.474 157.545Z" fill="#694EFF"/>
<path d="M144.432 210.259C150.675 201.902 154.321 193.431 155.371 184.848C156.45 176.227 155.046 167.932 151.16 159.963C147.265 151.927 140.968 144.661 132.271 138.164L132.157 138.08C123.46 131.583 114.725 127.621 105.952 126.193C97.2076 124.728 88.8551 125.736 80.8943 129.216C72.9336 132.695 65.8461 138.595 59.6317 146.914C53.5021 155.12 49.8981 163.534 48.8197 172.155C47.7413 180.776 49.1169 189.109 52.9462 197.154C56.8039 205.161 63.0814 212.413 71.7789 218.91L71.8924 218.994C80.5899 225.491 89.3438 229.467 98.1543 230.923C106.927 232.35 115.294 231.324 123.254 227.844C131.215 224.364 138.274 218.502 144.432 210.259ZM127.189 197.378C124.307 201.235 120.772 203.838 116.584 205.187C112.395 206.535 107.835 206.605 102.905 205.397C97.9655 204.123 92.9243 201.565 87.7814 197.723L87.668 197.639C82.4873 193.769 78.6041 189.66 76.0186 185.313C73.4613 180.929 72.2539 176.551 72.3965 172.18C72.5295 167.743 74.0225 163.614 76.8754 159.795C79.8131 155.862 83.3764 153.222 87.5652 151.873C91.754 150.524 96.2993 150.473 101.201 151.719C106.131 152.927 111.168 155.452 116.311 159.294L116.424 159.379C121.529 163.192 125.393 167.286 128.017 171.661C130.602 176.008 131.862 180.396 131.795 184.823C131.718 189.185 130.183 193.37 127.189 197.378Z" fill="url(#paint0_linear_12_2554)"/>
<path d="M165.412 129.171L183.632 104.78C188.18 98.6916 190.962 92.5218 191.979 86.2705C192.958 79.9909 192.21 74.0121 189.735 68.3339C187.251 62.5897 183.097 57.5425 177.273 53.1925L177.16 53.1077C171.298 48.7294 165.28 46.1781 159.105 45.4537C152.92 44.6633 146.956 45.6283 141.212 48.3487C135.43 51.0409 130.266 55.4311 125.718 61.5194L107.498 85.9101L123.494 97.8587L137.985 78.4595C141.262 74.0729 144.915 71.4698 148.944 70.6502C153.002 69.7927 157.167 70.9599 161.44 74.1519L161.554 74.2366C165.789 77.4003 168.09 81.0633 168.457 85.2257C168.852 89.3503 167.411 93.6058 164.134 97.9924L149.643 117.392L165.412 129.171ZM181.511 157.545L197.061 136.728L115.21 75.5866L99.6598 96.4039L181.511 157.545Z" fill="url(#paint1_linear_12_2554)"/>
<path d="M164.468 210.259C170.711 201.902 174.357 193.431 175.408 184.848C176.486 176.227 175.082 167.932 171.196 159.963C167.301 151.927 161.004 144.661 152.307 138.164L152.193 138.08C143.496 131.583 134.761 127.621 125.988 126.193C117.244 124.728 108.891 125.736 100.931 129.216C92.9699 132.695 85.8823 138.595 79.668 146.914C73.5383 155.12 69.9343 163.534 68.856 172.155C67.7776 180.776 69.1531 189.109 72.9825 197.154C76.8401 205.161 83.1177 212.413 91.8152 218.91L91.9286 218.994C100.626 225.491 109.38 229.467 118.191 230.923C126.963 232.35 135.33 231.324 143.291 227.844C151.251 224.364 158.311 218.502 164.468 210.259ZM147.225 197.378C144.344 201.235 140.809 203.838 136.62 205.187C132.431 206.535 127.872 206.605 122.941 205.397C118.002 204.123 112.961 201.565 107.818 197.723L107.704 197.639C102.524 193.769 98.6404 189.66 96.0548 185.313C93.4975 180.929 92.2901 176.551 92.4327 172.18C92.5657 167.743 94.0587 163.614 96.9117 159.795C99.8494 155.862 103.413 153.222 107.601 151.873C111.79 150.524 116.336 150.473 121.237 151.719C126.167 152.927 131.204 155.452 136.347 159.294L136.46 159.379C141.565 163.192 145.43 167.286 148.053 171.661C150.638 176.008 151.898 180.396 151.831 184.823C151.754 189.185 150.219 193.37 147.225 197.378Z" fill="#694EFF"/>
<path d="M185.449 129.171L203.668 104.78C208.216 98.6916 210.998 92.5218 212.015 86.2705C212.994 79.9909 212.246 74.0121 209.771 68.3339C207.287 62.5897 203.133 57.5425 197.309 53.1925L197.196 53.1077C191.335 48.7294 185.316 46.1781 179.141 45.4537C172.956 44.6633 166.992 45.6283 161.248 48.3487C155.467 51.0409 150.302 55.4311 145.754 61.5194L127.535 85.9101L143.53 97.8587L158.021 78.4595C161.298 74.0729 164.951 71.4698 168.98 70.6502C173.038 69.7927 177.203 70.9599 181.476 74.1519L181.59 74.2366C185.825 77.4003 188.126 81.0633 188.493 85.2257C188.888 89.3503 187.447 93.6058 184.17 97.9924L169.68 117.392L185.449 129.171ZM201.547 157.545L217.097 136.728L135.246 75.5866L119.696 96.4039L201.547 157.545Z" fill="#694EFF"/>
<path d="M184.505 210.259C190.747 201.902 194.394 193.431 195.444 184.848C196.522 176.227 195.118 167.932 191.233 159.963C187.337 151.927 181.041 144.661 172.343 138.164L172.23 138.08C163.532 131.583 154.797 127.621 146.025 126.193C137.28 124.728 128.928 125.736 120.967 129.216C113.006 132.695 105.919 138.595 99.7042 146.914C93.5746 155.12 89.9706 163.534 88.8922 172.155C87.8139 180.776 89.1894 189.109 93.0188 197.154C96.8764 205.161 103.154 212.413 111.851 218.91L111.965 218.994C120.662 225.491 129.416 229.467 138.227 230.923C146.999 232.35 155.366 231.324 163.327 227.844C171.288 224.364 178.347 218.502 184.505 210.259ZM167.261 197.378C164.38 201.235 160.845 203.838 156.656 205.187C152.467 206.535 147.908 206.605 142.978 205.397C138.038 204.123 132.997 201.565 127.854 197.723L127.74 197.639C122.56 193.769 118.677 189.66 116.091 185.313C113.534 180.929 112.326 176.551 112.469 172.18C112.602 167.743 114.095 163.614 116.948 159.795C119.886 155.862 123.449 153.222 127.638 151.873C131.826 150.524 136.372 150.473 141.274 151.719C146.204 152.927 151.24 155.452 156.383 159.294L156.497 159.379C161.602 163.192 165.466 167.286 168.089 171.661C170.675 176.008 171.934 180.396 171.867 184.823C171.791 189.185 170.255 193.37 167.261 197.378Z" fill="url(#paint2_linear_12_2554)"/>
<path d="M205.485 129.171L223.704 104.78C228.252 98.6916 231.034 92.5218 232.051 86.2705C233.03 79.9909 232.282 74.0121 229.807 68.3339C227.323 62.5897 223.169 57.5425 217.345 53.1925L217.232 53.1077C211.371 48.7294 205.352 46.1781 199.177 45.4537C192.992 44.6633 187.028 45.6283 181.284 48.3487C175.503 51.0409 170.338 55.4311 165.79 61.5194L147.571 85.9101L163.567 97.8587L178.057 78.4595C181.334 74.0729 184.987 71.4698 189.016 70.6502C193.074 69.7927 197.239 70.9599 201.512 74.1519L201.626 74.2366C205.861 77.4003 208.162 81.0633 208.529 85.2257C208.924 89.3503 207.483 93.6058 204.207 97.9924L189.716 117.392L205.485 129.171ZM221.583 157.545L237.133 136.728L155.282 75.5866L139.732 96.4039L221.583 157.545Z" fill="url(#paint3_linear_12_2554)"/>
</g>
<g style="mix-blend-mode:color-burn">
<g filter="url(#filter1_f_12_2554)">
<path d="M124.896 210.759C131.139 202.402 134.785 193.931 135.835 185.348C136.913 176.727 135.51 168.432 131.624 160.463C127.728 152.427 121.432 145.161 112.734 138.664L112.621 138.58C103.923 132.083 95.1884 128.121 86.4158 126.693C77.6714 125.228 69.3188 126.236 61.3581 129.716C53.3974 133.195 46.3098 139.095 40.0954 147.414C33.9658 155.62 30.3618 164.034 29.2835 172.655C28.2051 181.276 29.5806 189.609 33.41 197.654C37.2676 205.661 43.5452 212.913 52.2427 219.41L52.3561 219.494C61.0536 225.991 69.8076 229.967 78.618 231.423C87.3907 232.85 95.7574 231.824 103.718 228.344C111.679 224.864 118.738 219.002 124.896 210.759ZM107.652 197.878C104.771 201.735 101.236 204.338 97.0472 205.687C92.8584 207.035 88.299 207.105 83.3689 205.897C78.4293 204.623 73.388 202.065 68.2451 198.223L68.1317 198.139C62.951 194.269 59.0679 190.16 56.4823 185.813C53.925 181.429 52.7176 177.051 52.8602 172.68C52.9932 168.243 54.4862 164.115 57.3392 160.295C60.2769 156.362 63.8401 153.722 68.0289 152.373C72.2177 151.024 76.763 150.973 81.6649 152.219C86.595 153.427 91.6314 155.952 96.7743 159.794L96.8878 159.879C101.993 163.692 105.857 167.786 108.48 172.162C111.066 176.508 112.325 180.896 112.258 185.323C112.182 189.685 110.646 193.87 107.652 197.878Z" fill="#694EFF"/>
<path d="M145.876 129.671L164.095 105.28C168.643 99.1916 171.426 93.0218 172.442 86.7705C173.422 80.4909 172.674 74.5121 170.199 68.8339C167.714 63.0897 163.56 58.0425 157.737 53.6925L157.623 53.6077C151.762 49.2294 145.744 46.6781 139.568 45.9537C133.384 45.1633 127.419 46.1283 121.676 48.8487C115.894 51.5409 110.729 55.9311 106.182 62.0194L87.9621 86.4102L103.958 98.3587L118.449 78.9595C121.725 74.573 125.378 71.9698 129.408 71.1502C133.465 70.2927 137.631 71.46 141.904 74.6519L142.017 74.7366C146.253 77.9003 148.554 81.5633 148.92 85.7257C149.315 89.8503 147.875 94.1059 144.598 98.4924L130.107 117.892L145.876 129.671ZM161.974 158.045L177.525 137.228L95.6736 76.0866L80.1235 96.9039L161.974 158.045Z" fill="#694EFF"/>
<path d="M144.932 210.759C151.175 202.402 154.821 193.931 155.871 185.348C156.95 176.727 155.546 168.432 151.66 160.463C147.765 152.427 141.468 145.161 132.771 138.664L132.657 138.58C123.96 132.083 115.225 128.121 106.452 126.693C97.7076 125.228 89.3551 126.236 81.3943 129.716C73.4336 133.195 66.3461 139.095 60.1317 147.414C54.0021 155.62 50.3981 164.034 49.3197 172.655C48.2413 181.276 49.6169 189.609 53.4462 197.654C57.3039 205.661 63.5814 212.913 72.2789 219.41L72.3924 219.494C81.0899 225.991 89.8438 229.967 98.6543 231.423C107.427 232.85 115.794 231.824 123.754 228.344C131.715 224.864 138.774 219.002 144.932 210.759ZM127.689 197.878C124.807 201.735 121.272 204.338 117.084 205.687C112.895 207.035 108.335 207.105 103.405 205.897C98.4655 204.623 93.4243 202.065 88.2814 198.223L88.168 198.139C82.9873 194.269 79.1041 190.16 76.5186 185.813C73.9613 181.429 72.7539 177.051 72.8965 172.68C73.0295 168.243 74.5225 164.114 77.3754 160.295C80.3131 156.362 83.8764 153.722 88.0652 152.373C92.254 151.024 96.7993 150.973 101.701 152.219C106.631 153.427 111.668 155.952 116.811 159.794L116.924 159.879C122.029 163.692 125.893 167.786 128.517 172.161C131.102 176.508 132.362 180.896 132.295 185.323C132.218 189.685 130.683 193.87 127.689 197.878Z" fill="url(#paint4_linear_12_2554)"/>
<path d="M165.912 129.671L184.132 105.28C188.68 99.1916 191.462 93.0218 192.479 86.7705C193.458 80.4909 192.71 74.5121 190.235 68.8339C187.751 63.0897 183.597 58.0425 177.773 53.6925L177.66 53.6077C171.798 49.2294 165.78 46.6781 159.605 45.9537C153.42 45.1633 147.456 46.1283 141.712 48.8487C135.93 51.5409 130.766 55.9311 126.218 62.0194L107.998 86.4101L123.994 98.3587L138.485 78.9595C141.762 74.5729 145.415 71.9698 149.444 71.1502C153.502 70.2927 157.667 71.4599 161.94 74.6519L162.054 74.7366C166.289 77.9003 168.59 81.5633 168.957 85.7257C169.352 89.8503 167.911 94.1058 164.634 98.4924L150.143 117.892L165.912 129.671ZM182.011 158.045L197.561 137.228L115.71 76.0866L100.16 96.9039L182.011 158.045Z" fill="url(#paint5_linear_12_2554)"/>
<path d="M164.968 210.759C171.211 202.402 174.857 193.931 175.908 185.348C176.986 176.727 175.582 168.432 171.696 160.463C167.801 152.427 161.504 145.161 152.807 138.664L152.693 138.58C143.996 132.083 135.261 128.121 126.488 126.693C117.744 125.228 109.391 126.236 101.431 129.716C93.4699 133.195 86.3823 139.095 80.168 147.414C74.0383 155.62 70.4343 164.034 69.356 172.655C68.2776 181.276 69.6531 189.609 73.4825 197.654C77.3401 205.661 83.6177 212.913 92.3152 219.41L92.4286 219.494C101.126 225.991 109.88 229.967 118.691 231.423C127.463 232.85 135.83 231.824 143.791 228.344C151.751 224.864 158.811 219.002 164.968 210.759ZM147.725 197.878C144.844 201.735 141.309 204.338 137.12 205.687C132.931 207.035 128.372 207.105 123.441 205.897C118.502 204.623 113.461 202.065 108.318 198.223L108.204 198.139C103.024 194.269 99.1404 190.16 96.5548 185.813C93.9975 181.429 92.7901 177.051 92.9327 172.68C93.0657 168.243 94.5587 164.114 97.4117 160.295C100.349 156.362 103.913 153.722 108.101 152.373C112.29 151.024 116.836 150.973 121.737 152.219C126.667 153.427 131.704 155.952 136.847 159.794L136.96 159.879C142.065 163.692 145.93 167.786 148.553 172.161C151.138 176.508 152.398 180.896 152.331 185.323C152.254 189.685 150.719 193.87 147.725 197.878Z" fill="#694EFF"/>
<path d="M185.949 129.671L204.168 105.28C208.716 99.1916 211.498 93.0218 212.515 86.7705C213.494 80.4909 212.746 74.5121 210.271 68.8339C207.787 63.0897 203.633 58.0425 197.809 53.6925L197.696 53.6077C191.835 49.2294 185.816 46.6781 179.641 45.9537C173.456 45.1633 167.492 46.1283 161.748 48.8487C155.967 51.5409 150.802 55.9311 146.254 62.0194L128.035 86.4101L144.03 98.3587L158.521 78.9595C161.798 74.5729 165.451 71.9698 169.48 71.1502C173.538 70.2927 177.703 71.4599 181.976 74.6519L182.09 74.7366C186.325 77.9003 188.626 81.5633 188.993 85.7257C189.388 89.8503 187.947 94.1058 184.67 98.4924L170.18 117.892L185.949 129.671ZM202.047 158.045L217.597 137.228L135.746 76.0866L120.196 96.9039L202.047 158.045Z" fill="#694EFF"/>
<path d="M185.005 210.759C191.247 202.402 194.894 193.931 195.944 185.348C197.022 176.727 195.618 168.432 191.733 160.463C187.837 152.427 181.541 145.161 172.843 138.664L172.73 138.58C164.032 132.083 155.297 128.121 146.525 126.693C137.78 125.228 129.428 126.236 121.467 129.716C113.506 133.195 106.419 139.095 100.204 147.414C94.0746 155.62 90.4706 164.034 89.3922 172.655C88.3139 181.276 89.6894 189.609 93.5188 197.654C97.3764 205.661 103.654 212.913 112.351 219.41L112.465 219.494C121.162 225.991 129.916 229.967 138.727 231.423C147.499 232.85 155.866 231.824 163.827 228.344C171.788 224.864 178.847 219.002 185.005 210.759ZM167.761 197.878C164.88 201.735 161.345 204.338 157.156 205.687C152.967 207.035 148.408 207.105 143.478 205.897C138.538 204.623 133.497 202.065 128.354 198.223L128.24 198.139C123.06 194.269 119.177 190.16 116.591 185.813C114.034 181.429 112.826 177.051 112.969 172.68C113.102 168.243 114.595 164.114 117.448 160.295C120.386 156.362 123.949 153.722 128.138 152.373C132.326 151.024 136.872 150.973 141.774 152.219C146.704 153.427 151.74 155.952 156.883 159.794L156.997 159.879C162.102 163.692 165.966 167.786 168.589 172.161C171.175 176.508 172.434 180.896 172.367 185.323C172.291 189.685 170.755 193.87 167.761 197.878Z" fill="url(#paint6_linear_12_2554)"/>
<path d="M205.985 129.671L224.204 105.28C228.752 99.1916 231.534 93.0218 232.551 86.7705C233.53 80.4909 232.782 74.5121 230.307 68.8339C227.823 63.0897 223.669 58.0425 217.845 53.6925L217.732 53.6077C211.871 49.2294 205.852 46.6781 199.677 45.9537C193.492 45.1633 187.528 46.1283 181.784 48.8487C176.003 51.5409 170.838 55.9311 166.29 62.0194L148.071 86.4101L164.067 98.3587L178.557 78.9595C181.834 74.5729 185.487 71.9698 189.516 71.1502C193.574 70.2927 197.739 71.4599 202.012 74.6519L202.126 74.7366C206.361 77.9003 208.662 81.5633 209.029 85.7257C209.424 89.8503 207.983 94.1058 204.707 98.4924L190.216 117.892L205.985 129.671ZM222.083 158.045L237.633 137.228L155.782 76.0866L140.232 96.9039L222.083 158.045Z" fill="url(#paint7_linear_12_2554)"/>
</g>
</g>
<path d="M124.896 210.759C131.139 202.402 134.785 193.931 135.835 185.348C136.913 176.727 135.51 168.432 131.624 160.463C127.728 152.427 121.432 145.161 112.734 138.664L112.621 138.58C103.923 132.083 95.1884 128.121 86.4158 126.693C77.6714 125.228 69.3188 126.236 61.3581 129.716C53.3974 133.196 46.3098 139.095 40.0954 147.414C33.9658 155.62 30.3618 164.034 29.2835 172.655C28.2051 181.276 29.5806 189.609 33.41 197.654C37.2676 205.661 43.5452 212.913 52.2427 219.41L52.3561 219.494C61.0536 225.991 69.8076 229.967 78.618 231.423C87.3907 232.85 95.7574 231.824 103.718 228.344C111.679 224.864 118.738 219.002 124.896 210.759ZM107.652 197.878C104.771 201.735 101.236 204.338 97.0472 205.687C92.8584 207.035 88.299 207.105 83.3689 205.897C78.4293 204.623 73.388 202.065 68.2451 198.223L68.1317 198.139C62.951 194.269 59.0679 190.16 56.4823 185.813C53.925 181.429 52.7176 177.051 52.8602 172.68C52.9932 168.243 54.4862 164.115 57.3392 160.295C60.2769 156.362 63.8401 153.722 68.0289 152.373C72.2177 151.025 76.763 150.973 81.6649 152.219C86.595 153.427 91.6314 155.952 96.7743 159.794L96.8878 159.879C101.993 163.692 105.857 167.786 108.48 172.162C111.066 176.508 112.325 180.896 112.258 185.323C112.182 189.685 110.646 193.87 107.652 197.878Z" fill="#694EFF"/>
<path d="M143.473 127.875C144.8 128.867 146.68 128.595 147.671 127.267L164.095 105.28C168.643 99.1916 171.426 93.0219 172.442 86.7705C173.422 80.491 172.674 74.5121 170.199 68.8339C167.714 63.0897 163.56 58.0426 157.737 53.6925L157.623 53.6078C151.762 49.2294 145.744 46.6781 139.568 45.9537C133.384 45.1633 127.419 46.1283 121.676 48.8487C115.894 51.5409 110.729 55.9311 106.182 62.0194L89.7575 84.0067C88.7659 85.3341 89.0382 87.214 90.3656 88.2055L101.554 96.5634C102.882 97.5549 104.762 97.2826 105.753 95.9552L118.449 78.9595C121.725 74.573 125.378 71.9699 129.408 71.1502C133.465 70.2927 137.631 71.46 141.904 74.6519L142.017 74.7366C146.253 77.9003 148.554 81.5634 148.92 85.7257C149.315 89.8503 147.875 94.1059 144.598 98.4924L131.902 115.488C130.911 116.816 131.183 118.695 132.511 119.687L143.473 127.875ZM159.571 156.249C160.898 157.241 162.778 156.969 163.77 155.641L175.729 139.631C176.721 138.304 176.448 136.424 175.121 135.432L98.0771 77.882C96.7497 76.8904 94.8698 77.1627 93.8782 78.4901L81.9189 94.5004C80.9273 95.8278 81.1996 97.7077 82.527 98.6992L159.571 156.249Z" fill="#694EFF"/>
<path d="M144.932 210.759C151.175 202.402 154.821 193.931 155.871 185.348C156.95 176.727 155.546 168.432 151.66 160.463C147.765 152.427 141.468 145.161 132.771 138.664L132.657 138.58C123.96 132.083 115.225 128.121 106.452 126.693C97.7076 125.228 89.3551 126.236 81.3943 129.716C73.4336 133.195 66.3461 139.095 60.1317 147.414C54.0021 155.62 50.3981 164.034 49.3197 172.655C48.2413 181.276 49.6169 189.609 53.4462 197.654C57.3039 205.661 63.5814 212.913 72.2789 219.41L72.3924 219.494C81.0899 225.991 89.8438 229.967 98.6543 231.423C107.427 232.85 115.794 231.824 123.754 228.344C131.715 224.864 138.774 219.002 144.932 210.759ZM127.689 197.878C124.807 201.735 121.272 204.338 117.084 205.687C112.895 207.035 108.335 207.105 103.405 205.897C98.4655 204.623 93.4243 202.065 88.2814 198.223L88.168 198.139C82.9873 194.269 79.1041 190.16 76.5186 185.813C73.9613 181.429 72.7539 177.051 72.8965 172.68C73.0295 168.243 74.5225 164.115 77.3754 160.295C80.3131 156.362 83.8764 153.722 88.0652 152.373C92.254 151.024 96.7993 150.973 101.701 152.219C106.631 153.427 111.668 155.952 116.811 159.794L116.924 159.879C122.029 163.692 125.893 167.786 128.517 172.162C131.102 176.508 132.362 180.896 132.295 185.323C132.218 189.685 130.683 193.87 127.689 197.878Z" fill="url(#paint8_linear_12_2554)"/>
<path d="M163.509 127.875C164.836 128.867 166.716 128.595 167.708 127.267L184.132 105.28C188.68 99.1916 191.462 93.0218 192.479 86.7705C193.458 80.4909 192.71 74.5121 190.235 68.8339C187.751 63.0897 183.597 58.0425 177.773 53.6925L177.66 53.6077C171.798 49.2294 165.78 46.6781 159.605 45.9537C153.42 45.1633 147.456 46.1283 141.712 48.8487C135.93 51.5409 130.766 55.9311 126.218 62.0194L109.794 84.0067C108.802 85.3341 109.074 87.214 110.402 88.2055L121.591 96.5634C122.918 97.5549 124.798 97.2826 125.79 95.9552L138.485 78.9595C141.762 74.573 145.415 71.9698 149.444 71.1502C153.502 70.2927 157.667 71.46 161.94 74.6519L162.054 74.7366C166.289 77.9003 168.59 81.5633 168.957 85.7257C169.352 89.8503 167.911 94.1059 164.634 98.4924L151.939 115.488C150.947 116.816 151.219 118.695 152.547 119.687L163.509 127.875ZM179.607 156.249C180.935 157.241 182.815 156.969 183.806 155.641L195.765 139.631C196.757 138.304 196.485 136.424 195.157 135.432L118.113 77.882C116.786 76.8904 114.906 77.1627 113.914 78.4901L101.955 94.5004C100.964 95.8278 101.236 97.7077 102.563 98.6992L179.607 156.249Z" fill="url(#paint9_linear_12_2554)"/>
<path d="M164.968 210.759C171.211 202.402 174.857 193.931 175.908 185.348C176.986 176.727 175.582 168.432 171.696 160.463C167.801 152.427 161.504 145.161 152.807 138.664L152.693 138.58C143.996 132.083 135.261 128.121 126.488 126.693C117.744 125.228 109.391 126.236 101.431 129.716C93.4699 133.195 86.3823 139.095 80.168 147.414C74.0383 155.62 70.4343 164.034 69.356 172.655C68.2776 181.276 69.6531 189.609 73.4825 197.654C77.3401 205.661 83.6177 212.913 92.3152 219.41L92.4286 219.494C101.126 225.991 109.88 229.967 118.691 231.423C127.463 232.85 135.83 231.824 143.791 228.344C151.751 224.864 158.811 219.002 164.968 210.759ZM147.725 197.878C144.844 201.735 141.309 204.338 137.12 205.687C132.931 207.035 128.372 207.105 123.441 205.897C118.502 204.623 113.461 202.065 108.318 198.223L108.204 198.139C103.024 194.269 99.1404 190.16 96.5548 185.813C93.9975 181.429 92.7901 177.051 92.9327 172.68C93.0657 168.243 94.5587 164.115 97.4117 160.295C100.349 156.362 103.913 153.722 108.101 152.373C112.29 151.024 116.836 150.973 121.737 152.219C126.667 153.427 131.704 155.952 136.847 159.794L136.96 159.879C142.065 163.692 145.93 167.786 148.553 172.162C151.138 176.508 152.398 180.896 152.331 185.323C152.254 189.685 150.719 193.87 147.725 197.878Z" fill="#694EFF"/>
<path d="M183.545 127.875C184.873 128.867 186.752 128.595 187.744 127.267L204.168 105.28C208.716 99.1916 211.498 93.0218 212.515 86.7705C213.494 80.4909 212.746 74.5121 210.271 68.8339C207.787 63.0897 203.633 58.0425 197.809 53.6925L197.696 53.6077C191.835 49.2294 185.816 46.6781 179.641 45.9537C173.456 45.1633 167.492 46.1283 161.748 48.8487C155.967 51.5409 150.802 55.9311 146.254 62.0194L129.83 84.0067C128.838 85.3341 129.111 87.214 130.438 88.2055L141.627 96.5634C142.954 97.5549 144.834 97.2826 145.826 95.9552L158.521 78.9595C161.798 74.573 165.451 71.9698 169.48 71.1502C173.538 70.2927 177.703 71.46 181.976 74.6519L182.09 74.7366C186.325 77.9003 188.626 81.5633 188.993 85.7257C189.388 89.8503 187.947 94.1059 184.67 98.4924L171.975 115.488C170.983 116.816 171.256 118.695 172.583 119.687L183.545 127.875ZM199.644 156.249C200.971 157.241 202.851 156.969 203.842 155.641L215.802 139.631C216.793 138.304 216.521 136.424 215.194 135.432L138.15 77.882C136.822 76.8904 134.942 77.1627 133.951 78.4901L121.991 94.5004C121 95.8278 121.272 97.7077 122.6 98.6992L199.644 156.249Z" fill="#694EFF"/>
<path d="M185.005 210.759C191.247 202.402 194.894 193.931 195.944 185.348C197.022 176.727 195.618 168.432 191.733 160.463C187.837 152.427 181.541 145.161 172.843 138.664L172.73 138.58C164.032 132.083 155.297 128.121 146.525 126.693C137.78 125.228 129.428 126.236 121.467 129.716C113.506 133.195 106.419 139.095 100.204 147.414C94.0746 155.62 90.4706 164.034 89.3922 172.655C88.3139 181.276 89.6894 189.609 93.5188 197.654C97.3764 205.661 103.654 212.913 112.351 219.41L112.465 219.494C121.162 225.991 129.916 229.967 138.727 231.423C147.499 232.85 155.866 231.824 163.827 228.344C171.788 224.864 178.847 219.002 185.005 210.759ZM167.761 197.878C164.88 201.735 161.345 204.338 157.156 205.687C152.967 207.035 148.408 207.105 143.478 205.897C138.538 204.623 133.497 202.065 128.354 198.223L128.24 198.139C123.06 194.269 119.177 190.16 116.591 185.813C114.034 181.429 112.826 177.051 112.969 172.68C113.102 168.243 114.595 164.115 117.448 160.295C120.386 156.362 123.949 153.722 128.138 152.373C132.326 151.024 136.872 150.973 141.774 152.219C146.704 153.427 151.74 155.952 156.883 159.794L156.997 159.879C162.102 163.692 165.966 167.786 168.589 172.162C171.175 176.508 172.434 180.896 172.367 185.323C172.291 189.685 170.755 193.87 167.761 197.878Z" fill="url(#paint10_linear_12_2554)"/>
<path d="M203.581 127.875C204.909 128.867 206.789 128.595 207.78 127.267L224.204 105.28C228.752 99.1916 231.534 93.0218 232.551 86.7705C233.53 80.4909 232.782 74.5121 230.307 68.8339C227.823 63.0897 223.669 58.0425 217.845 53.6925L217.732 53.6077C211.871 49.2294 205.852 46.6781 199.677 45.9537C193.492 45.1633 187.528 46.1283 181.784 48.8487C176.003 51.5409 170.838 55.9311 166.29 62.0194L149.866 84.0067C148.875 85.3341 149.147 87.214 150.474 88.2055L161.663 96.5634C162.991 97.5549 164.87 97.2826 165.862 95.9552L178.557 78.9595C181.834 74.573 185.487 71.9698 189.516 71.1502C193.574 70.2927 197.739 71.46 202.012 74.6519L202.126 74.7366C206.361 77.9003 208.662 81.5633 209.029 85.7257C209.424 89.8503 207.983 94.1059 204.707 98.4924L192.011 115.488C191.02 116.816 191.292 118.695 192.619 119.687L203.581 127.875ZM219.68 156.249C221.007 157.241 222.887 156.969 223.878 155.641L235.838 139.631C236.829 138.304 236.557 136.424 235.23 135.432L158.186 77.882C156.858 76.8904 154.978 77.1627 153.987 78.4901L142.028 94.5004C141.036 95.8278 141.308 97.7077 142.636 98.6992L219.68 156.249Z" fill="url(#paint11_linear_12_2554)"/>
<g style="mix-blend-mode:hue">
<path fill-rule="evenodd" clip-rule="evenodd" d="M-15.4512 105.814C-6.45279 96.8687 9.01718 105.419 21.6804 106.218C31.0676 106.81 40.0019 107.02 48.963 109.878C59.7052 113.304 73.8858 114.135 78.6066 124.374C83.3467 134.656 71.2612 145.195 70.452 156.488C69.5126 169.596 81.1101 184.068 73.5582 194.824C66.1908 205.317 49.9746 203.953 37.1537 203.912C25.9759 203.876 15.3341 200.428 5.79258 194.605C-3.15222 189.147 -11.0661 181.783 -15.0147 172.077C-18.7693 162.847 -15.1687 152.88 -15.2343 142.916C-15.3179 130.239 -24.442 114.753 -15.4512 105.814Z" fill="#C4C4C4"/>
<path fill-rule="evenodd" clip-rule="evenodd" d="M205.421 68.2032C205.823 57.7222 197.219 45.0516 205.238 38.2957C213.267 31.5318 224.374 41.6877 234.707 43.5322C246.36 45.6121 261.65 39.448 267.93 49.4856C274.32 59.7012 264.843 72.0662 259.229 82.7289C253.989 92.681 248.534 103.139 237.845 106.626C226.028 110.482 210.85 110.631 202.832 101.129C195.364 92.2787 204.978 79.7776 205.421 68.2032Z" fill="#FF6CFF"/>
<path fill-rule="evenodd" clip-rule="evenodd" d="M87.6916 227.525C80.4218 235.086 78.4216 250.271 67.9394 249.983C57.445 249.695 55.904 234.724 49.4132 226.475C42.0939 217.173 26.5754 211.608 28.5607 199.936C30.5813 188.056 45.8825 185.125 57.166 180.895C67.6975 176.947 78.7256 172.764 89.0282 177.268C100.417 182.246 111.852 192.229 111.521 204.657C111.213 216.233 95.7196 219.176 87.6916 227.525Z" fill="#FF6CFF"/>
<path fill-rule="evenodd" clip-rule="evenodd" d="M163.925 163.055C176.191 159.807 185.313 174.947 195.88 181.971C203.714 187.177 211.346 191.826 217.677 198.782C225.267 207.12 237.133 214.93 236.101 226.158C235.066 237.432 219.329 240.517 212.983 249.892C205.615 260.774 208.423 279.106 196.505 284.645C184.878 290.048 171.516 280.759 160.433 274.313C150.771 268.693 143.279 260.386 137.927 250.572C132.91 241.373 129.738 231.039 131.172 220.659C132.535 210.788 140.637 203.957 145.562 195.295C151.828 184.274 151.67 166.301 163.925 163.055Z" fill="#C4C4C4"/>
<path fill-rule="evenodd" clip-rule="evenodd" d="M78.5994 103.082C69.7232 97.4942 54.4482 98.6102 52.6072 88.287C50.7641 77.9517 65.1127 73.411 71.8767 65.3844C79.5041 56.333 81.811 40.0091 93.6437 39.5897C105.686 39.1629 111.656 53.5534 118.083 63.7466C124.082 73.2605 130.411 83.2132 128.087 94.2143C125.517 106.375 118.057 119.595 105.82 121.788C94.4206 123.83 88.4015 109.253 78.5994 103.082Z" fill="#FF6CFF"/>
<path fill-rule="evenodd" clip-rule="evenodd" d="M86.8517 -2.60983C93.7387 -9.45656 105.579 -2.91261 115.271 -2.30114C122.456 -1.84787 129.294 -1.68701 136.152 0.500519C144.374 3.12283 155.227 3.7584 158.84 11.5953C162.468 19.4642 153.218 27.5311 152.599 36.1739C151.88 46.2067 160.756 57.2828 154.976 65.5148C149.338 73.5457 136.926 72.5022 127.114 72.4706C118.559 72.443 110.414 69.8038 103.111 65.3474C96.2649 61.1697 90.2079 55.534 87.1858 48.1051C84.3121 41.041 87.0679 33.4129 87.0176 25.7868C86.9537 16.0838 79.9704 4.23117 86.8517 -2.60983Z" fill="#C4C4C4"/>
</g>
</g>
</g>
<defs>
<filter id="filter0_f_12_2554" x="11.428" y="28.1868" width="242.705" height="220.359" filterUnits="userSpaceOnUse" color-interpolation-filters="sRGB">
<feFlood flood-opacity="0" result="BackgroundImageFix"/>
<feBlend mode="normal" in="SourceGraphic" in2="BackgroundImageFix" result="shape"/>
<feGaussianBlur stdDeviation="8.5" result="effect1_foregroundBlur_12_2554"/>
</filter>
<filter id="filter1_f_12_2554" x="11.928" y="28.6868" width="242.705" height="220.359" filterUnits="userSpaceOnUse" color-interpolation-filters="sRGB">
<feFlood flood-opacity="0" result="BackgroundImageFix"/>
<feBlend mode="normal" in="SourceGraphic" in2="BackgroundImageFix" result="shape"/>
<feGaussianBlur stdDeviation="8.5" result="effect1_foregroundBlur_12_2554"/>
</filter>
<linearGradient id="paint0_linear_12_2554" x1="189.987" y1="238.518" x2="28.862" y2="133.691" gradientUnits="userSpaceOnUse">
<stop offset="0.213542" stop-color="#F3F3F3"/>
<stop offset="1" stop-color="#F3F3F3" stop-opacity="0"/>
</linearGradient>
<linearGradient id="paint1_linear_12_2554" x1="249.274" y1="152.969" x2="92.5977" y2="53.9083" gradientUnits="userSpaceOnUse">
<stop offset="0.213542" stop-color="#F3F3F3"/>
<stop offset="1" stop-color="#F3F3F3" stop-opacity="0"/>
</linearGradient>
<linearGradient id="paint2_linear_12_2554" x1="99.7254" y1="146.886" x2="184.526" y2="210.23" gradientUnits="userSpaceOnUse">
<stop stop-color="white"/>
<stop offset="0.484375" stop-color="white" stop-opacity="0.901042"/>
<stop offset="1" stop-color="white" stop-opacity="0"/>
</linearGradient>
<linearGradient id="paint3_linear_12_2554" x1="163.989" y1="63.9301" x2="245.84" y2="125.071" gradientUnits="userSpaceOnUse">
<stop stop-color="white"/>
<stop offset="0.484375" stop-color="white" stop-opacity="0.901042"/>
<stop offset="1" stop-color="white" stop-opacity="0"/>
</linearGradient>
<linearGradient id="paint4_linear_12_2554" x1="190.487" y1="239.018" x2="29.362" y2="134.191" gradientUnits="userSpaceOnUse">
<stop offset="0.213542" stop-color="#F3F3F3"/>
<stop offset="1" stop-color="#F3F3F3" stop-opacity="0"/>
</linearGradient>
<linearGradient id="paint5_linear_12_2554" x1="249.774" y1="153.469" x2="93.0977" y2="54.4083" gradientUnits="userSpaceOnUse">
<stop offset="0.213542" stop-color="#F3F3F3"/>
<stop offset="1" stop-color="#F3F3F3" stop-opacity="0"/>
</linearGradient>
<linearGradient id="paint6_linear_12_2554" x1="100.225" y1="147.386" x2="185.026" y2="210.73" gradientUnits="userSpaceOnUse">
<stop stop-color="white"/>
<stop offset="0.484375" stop-color="white" stop-opacity="0.901042"/>
<stop offset="1" stop-color="white" stop-opacity="0"/>
</linearGradient>
<linearGradient id="paint7_linear_12_2554" x1="164.489" y1="64.4301" x2="246.34" y2="125.571" gradientUnits="userSpaceOnUse">
<stop stop-color="white"/>
<stop offset="0.484375" stop-color="white" stop-opacity="0.901042"/>
<stop offset="1" stop-color="white" stop-opacity="0"/>
</linearGradient>
<linearGradient id="paint8_linear_12_2554" x1="190.487" y1="239.018" x2="29.362" y2="134.191" gradientUnits="userSpaceOnUse">
<stop offset="0.213542" stop-color="#F3F3F3"/>
<stop offset="1" stop-color="#F3F3F3" stop-opacity="0"/>
</linearGradient>
<linearGradient id="paint9_linear_12_2554" x1="249.774" y1="153.469" x2="93.0977" y2="54.4083" gradientUnits="userSpaceOnUse">
<stop offset="0.213542" stop-color="#F3F3F3"/>
<stop offset="1" stop-color="#F3F3F3" stop-opacity="0"/>
</linearGradient>
<linearGradient id="paint10_linear_12_2554" x1="91.4474" y1="137.232" x2="186.431" y2="208.255" gradientUnits="userSpaceOnUse">
<stop stop-color="white"/>
<stop offset="0.524347" stop-color="white" stop-opacity="0.901042"/>
<stop offset="1" stop-color="white" stop-opacity="0"/>
</linearGradient>
<linearGradient id="paint11_linear_12_2554" x1="155.738" y1="55.0028" x2="247.411" y2="123.564" gradientUnits="userSpaceOnUse">
<stop stop-color="white"/>
<stop offset="0.524347" stop-color="white" stop-opacity="0.901042"/>
<stop offset="1" stop-color="white" stop-opacity="0"/>
</linearGradient>
<clipPath id="clip0_12_2554">
<rect width="281" height="281" fill="white"/>
</clipPath>
</defs>
</svg>
